<svg xmlns="http://www.w3.org/2000/svg" fill-rule="evenodd" fill="currentColor" style="enable-background:new 0 0 48 48" viewBox="0 0 48 48"><path d="M42.82 8.595c-.612-.72-1.74-1.579-3.645-1.579-1.368 0-3.015.441-5.506 1.474l-.299.124c-3.805 1.58-7.48 3.118-10.949 4.582a1.49 1.49 0 0 0-.91 1.38 1.503 1.503 0 0 0 2.087 1.381c5.659-2.388 10.172-4.259 11.22-4.694 1.928-.801 3.36-1.246 4.357-1.246 1.687 0 2.131 1.276 1.632 4.272-.309 1.852-.932 6.02-1.646 10.573-.143.91.56 1.735 1.482 1.735h.001a1.5 1.5 0 0 0 1.482-1.268c.31-1.976.605-3.888.866-5.587.331-2.156.603-3.924.776-4.961.349-2.095.509-4.467-.948-6.186z" style="stroke:none"/><path d="M39.546 30.383c-.732 0-1.358.528-1.479 1.25a261.864 261.864 0 0 1-.788 4.485c-.502 2.702-1.407 3.867-2.724 3.867-.724 0-1.572-.352-2.546-.995-1.32-.872-7.984-5.279-9.431-6.314-1.32-.943-3.141-2.078-.857-4.312.813-.796 6.14-5.883 10.29-9.842.443-.423.072-1.068-.42-1.068a.625.625 0 0 0-.347.111c-5.594 3.71-13.351 8.859-14.338 9.53-.987.67-1.949 1.1-3.231 1.1-.655 0-1.394-.112-2.263-.362-1.943-.558-3.84-1.223-4.579-1.477-2.845-.976-2.17-2.241.593-3.457a1019.5 1019.5 0 0 1 9.389-4.064c.552-.236.908-.777.908-1.378v-.001a1.504 1.504 0 0 0-2.095-1.378c-3.5 1.496-6.676 2.87-9.411 4.073-1.074.473-4.341 1.91-4.214 4.916.054 1.297.768 3.065 3.856 4.124l.228.078c.862.297 2.657.916 4.497 1.445 1.12.322 2.132.478 3.091.478a8.041 8.041 0 0 0 3.961-1.028 4.78 4.78 0 0 0 .012.507c.182 2.312 1.97 3.58 3.038 4.338l.149.106c1.577 1.128 8.714 5.843 9.522 6.376 1.521 1.004 2.894 1.491 4.199 1.491 2.052 0 4.703-1.096 5.673-6.318.257-1.384.526-2.921.796-4.529a1.503 1.503 0 0 0-1.479-1.753z" style="stroke:none"/></svg>