<svg xmlns="http://www.w3.org/2000/svg" viewBox="0 0 180 180"><path fill-rule="evenodd" d="m39.074 81.907.946 1.413c-1.892-.059-3.883-.243-4.269-1.053.008-.04.016-.081.026-.12 1.063-.28 1.975-.297 3.297-.24Zm10.098 4.291c.15.466.306.93.457 1.394l-1.07.046c.085-.474.172-.95.254-1.424l.359-.016Zm3.656 10.179c-.948.874-1.685 1.457-2.249 2.774-.786-.639-1.19-1.912-1.442-3.336-.274-1.547-.37-3.272-.578-4.561.023-.219.044-.438.066-.658l1.101-.08c.933 1.766 1.87 3.531 2.805 5.299.1.186.197.373.297.562ZM51.405 83.32c.12-.795.24-1.588.366-2.382.025-.159.048-.319.07-.477.12-.006.24-.012.358-.02-.268.96-.532 1.919-.794 2.879Zm-.764-12.953 5.033 1.364c-.008.076-.014.152-.02.226-2.344 1.72-4.51 2.484-5.672 5.606l.44-6.955c.072-.081.145-.16.22-.24Zm4.7-7.196c-.33 3.233.132 4.667.697 6.672.898.64 1.25 1.021.959 1.963-1.512-.745-3.108-1.527-5.42-1.406a18.897 18.897 0 0 1-.172-.191c.652-2.553 1.914-4.119 2.893-6.14.348-.3.695-.6 1.044-.898Zm7.23-4.302.218-.016c-.692 2.385-.972 7.89-2.187 10.075-2.865-1.356-2.81-7.225.4-9.544l1.569-.515Zm-2.673 17.674 2.416 2.619c-.947 2.913-2.746 5.107-3.503 8.476-.478-.036-.952-.072-1.43-.106-1.216-3.399 1.834-8.932 2.352-11.408.745.087 1.49.171 2.236.259.274.697.548 1.395.82 2.093l-2.89-1.933Zm6.608-17.69c-.242 2.826.38 4.289.553 6.483l-4.27 2.153c.358-3.604 1.088-5.979 2.084-8.514l1.633-.121Zm1.66-4.297c.105-.008.213-.013.316-.02-.156.46-.316.92-.481 1.378l-.942.061c.239-.284.483-.57.729-.855l.378-.564Zm.316 13.188c-1.421.874-2.846 1.75-4.27 2.623.087-1.59 2.114-3.723 3.806-4.318.13.071.256.142.388.212.024.494.05.99.076 1.483Zm2.846-9.919c-.257 1.46-.515 2.92-.77 4.379-.266.168-.534.333-.798.5-.14.157-.28.312-.422.467-.775-1.085-.966-3.742-.802-5.757l2.792.411Zm2.846-3.285-.017.142c-.366.347-.729.695-1.091 1.042-.725.278-.816.266-1.738.236.125-.475.257-.95.387-1.424l2.46.004Zm2.846-5.761-1.27 2.878a5674.06 5674.06 0 0 1-4.422-.32l.022-.232c1.818-.838 3.41-1.83 5.67-2.326Zm-2.299 7.47.47-.274.406 1.44-1.423-.278.547-.888Zm3.722 4.26c-1.695.657-4.038.476-5.393 1.223-.099-.577-.197-1.153-.299-1.73.299-.382.592-.766.886-1.149 1.436.561 2.87 1.125 4.303 1.687.168-.01.335-.02.503-.032Zm-3.64 2.589-1.932.073c-.044-.203-.078-.406-.12-.61 1.36-.552 3.643-.605 5.692-.83l-2.16 1.188-1.48.179Zm5.063 0c-1.63.403-3.191 1.835-4.257 2.951-.208-1.3 2.302-3.6 3.505-4.317.534.474.59.424.752 1.365ZM82.713 45.9l-.022.228-1.71 1.026-2.538.185c.01-.075.018-.152.025-.226l4.245-1.213Zm-2.303 4.317c-.18-.269-.36-.538-.544-.806 1.282-1.08 4.12-.485 5.693-.326l-5.149 1.132Zm12.735-4.239c2.38.194 4.553.757 6.204 1.785.146-.01.293-.017.44-.026-.087.124-.177.246-.264.37l-2.275.671c-1.366-.195-2.737-.391-4.105-.588l-9.01-1.288c.007-.06.017-.12.024-.179 2.913-.673 6.1-.98 8.986-.745Zm9.468-.759c-.17.227-.337.455-.505.68a6.886 6.886 0 0 1-3.742-1.439c1.424.18 2.845.362 4.27.543l-.023.216Zm7.579 5.32 1.181-.448c.409.351.814.704 1.224 1.055-.165 1.196-1.326 2.18-2.214 3.347-.228.013-.454.028-.682.042-1.858-3.063-4.2-6.42-8.309-7.6l-.179-.367c.555-.222 1.106-.446 1.66-.668 2.79.97 5.116 2.445 7.708 3.296.332.804.229.533-.389 1.344Zm3.435 6.822c-.108-.105-.214-.213-.323-.319-.237.014-.471.035-.707.052.39-.373.783-.747 1.178-1.12-.054.462-.098.927-.148 1.387Zm1.255 15.884c1.925 1.662 2.418 4.067 1.616 7.196-.827-1.854-1.649-3.708-2.478-5.563.274-.411.542-.824.812-1.237.017-.132.031-.265.05-.396Zm.561-12.937c-.009.09-.013.178-.023.267l-1.012 1.156c-.13-.255-.257-.512-.388-.767.606-1.085.17-.502.965-.617.152-.013.305-.028.458-.039Zm1.183-.016c1.503.555 3.011 1.11 4.51 1.665-.01.15-.027.301-.041.451-.379.255-.758.509-1.138.762l-4.514-1.665c.015-.15.029-.301.042-.451.38-.255.76-.51 1.141-.762Zm8.779 5.756c-.833-.554-1.665-1.105-2.499-1.656-.117-.223-.231-.448-.347-.67 1.084-.663.927-.63 2.075-.41.254.912.512 1.823.771 2.736Zm1.423-.547-.5.547c-.61-.31-.717-.708-.923-1.439l1.304.565.119.327Zm-1.063-4.116c-.125.01-.239.016-.36.026.39-.372.785-.745 1.184-1.12-.276.366-.557.729-.824 1.094Zm6.755 7.24c-.233.1-.465.202-.694.302-1.274-.712-2.543-1.423-3.81-2.135-.396-.536-.793-1.074-1.188-1.613 1.974-1.456 2.043.23 3.904 1.148a565.12 565.12 0 0 0 1.788 2.298Zm1.423 1.266-1.423-.514c.286-.148.573-.299.858-.45l.565.964Zm-1.731 2.32c.514 1.037.51.742 1.731.59-.727.628-1.457 1.255-2.187 1.883a2478.74 2478.74 0 0 0-2.082-3.968c.007-.084.016-.165.026-.248 1.535-.329 2.031.225 3.53.446l.581.926c-.53.126-1.064.249-1.599.372Zm.308 2.583c.949-.518 1.896-1.032 2.846-1.55-.57 1.28-1.31 1.94-2.191 2.879-.216-.443-.435-.887-.655-1.33Zm5.693 5.492c-.771.666-1.271.88-2.733.999.391.042.784.087 1.174.13-.009.07-.016.138-.023.208l-4.009 1.696c-.037-1.712-.067-3.423-.102-5.134.92-1.087 1.845-2.174 2.765-3.262.171-.08.336-.159.504-.24.807 1.869 1.619 3.738 2.424 5.603Zm-1.424-7.87c7.858-2.19 6.34 1.973 2.833 5.146-.945-1.715-1.892-3.432-2.833-5.146Zm7.116.829c-2.895 13.575-3.454 14.315-13.692 20.148-.177-.27-.359-.538-.539-.808.122-.505.241-1.01.362-1.514 6.677-1.902 10.475-5.389 10.079-13.293 1.117-1.43 2.231-2.859 3.346-4.289l.444-.244Zm.348 0c-.113-.469-.23-.939-.348-1.408l1.066-.032-.718 1.44Zm-17.425 13.2c.032-.499.066-1 .101-1.499.027-.428.055-.857.085-1.286.328-.108.659-.218.988-.325.048-.004.094-.01.14-.016.277 1.697.002 2.957-.567 4.318-.476-.304-.57-.434-.747-1.191Zm-5.692 12.593.022-.248c.624-1.487 1.246-2.972 1.867-4.457.128-.314.262-.628.394-.94l3.286.221c.048.248.082.486.101.72.144 1.692-.443 3.047-1.05 4.816-1.54-.038-3.078-.073-4.62-.112Zm1.423 5.778c.012-.742.026-1.485.04-2.226l.054-.561 2.401.179.351-.027c-.55.908-1.098 1.816-1.644 2.726l-1.202-.091Zm-1.409-9.313.145-.075 1.139-.583.125-.012c-.06.198-.115.396-.172.596l-.658 2.282c-.196-.676-.397-1.354-.593-2.031.004-.06.007-.119.014-.177Zm-2.22 7.166-.641-.64c.627.434.218.01.641.64Zm-3.487-1.712c.799-.504 1.665-.349 2.846-.331-.118.382-.232.767-.349 1.149-.973.388-1.111.245-2.218.132-.092-.316-.183-.633-.279-.95Zm1.743 5.389c.369.865.737 1.73 1.103 2.594-.851.575-1.704 1.149-2.557 1.724-.761-1.038.071-3.958 1.454-4.318Zm-2.809-9.032c-.116.008-.234.016-.357.026.158-.357.312-.713.467-1.068-.033.345-.073.694-.11 1.042Zm4.098.397c-.06-.04-.124-.079-.186-.119.211-.437.415-.874.626-1.312l.207-.008c.195.46.395.92.591 1.382l-1.238.057Zm9.853-18.71c-.023-.161-.05-.325-.077-.487.375-.455.614-.738 1.258-.952.056.283.112.567.165.852-.275.182-.553.366-.827.55l-.519.037Zm-.077 3.515c-.257.339-.713.53-1.038.803-.13-2.398-.259-4.797-.385-7.196l1.423 6.393Zm-2.611 9.645c.942-.521 1.074-.04 1.188 1.232-.952-.001-1.896-.005-2.846-.007l.046-.443c.537-.262 1.074-.521 1.612-.782Zm-1.396-3.978c.213-.181.426-.365.643-.546l.518.929c-.081.17-.159.34-.242.51-.393-.045-.786-.09-1.181-.137.089-.252.175-.504.262-.756Zm-.262 3.817c-.493.464-.989.93-1.484 1.393-.322-.053-.645-.105-.966-.16a86.72 86.72 0 0 1-.396.039c.232-.44.46-.88.693-1.318.717.016 1.436.032 2.153.046Zm-5.371-.817c-.592-.413-.162-.357-.276-.668.091.222.185.445.276.668Zm4.488-6.425-4.81-2.487c.224-3.29.629-7.072.302-10.466 3.709 1.344 7.032 7.357 4.508 12.953Zm-3.386 0c1.183.62 1.115 1.194 2.756 1.693.287 1.067-.149 1.487-.831 2.625l-1.743-.071c-.361-1.895.029-2.984-.182-4.247Zm.325 9.303c-.596-.411-.169-.357-.279-.668.091.225.182.448.279.668Zm9.636-13.852.014-.264 1.283-.944c.226 1.474.141 3.927-.196 5.757-.757-.594-.897-3.094-1.101-4.55Zm0 4.548c.29-.48.576-.959.86-1.438-.17.47-.339.94-.5 1.412-.121.01-.239.02-.36.026Zm8.298-4.303c.083-.005.162-.01.24-.013.068 5.512-3.342 6.515-7.826 8.59-.238.015-.474.031-.712.045.93-1.925 1.86-3.85 2.793-5.775 1.835-.949 3.672-1.896 5.505-2.847Zm-8.434-10.77c.047.141.092.284.136.427-.118.086-.239.17-.356.255-.357-.48-.712-.959-1.067-1.44l1.287.757Zm-1.287 2.393c.019-.083.025-.17.039-.25l.314-.022c.359.481.714.96 1.07 1.44-.823-.395-.959-.49-1.423-1.168Zm1.423 3.678-1.921 1.807c-1.376-1.988-2.747-3.979-4.121-5.967-1.777-1.541-3.563-3.085-5.343-4.627.396-.306.788-.613 1.178-.92 2.585 1.117 7.11 3.244 8.021 5.898.297.863-.724 1.576-.029 2.298.825.855 1.651.246 2.215 1.511Zm-12.011 9.003.434.17c.064 1.383.127 2.766.192 4.148-.222-.052-.441-.103-.666-.154-.625-.46-1.063-2.604-.49-3.535l.53-.629Zm-3.152 7.214.459-.018c.157.375.318.75.473 1.126-.241.095-.487.19-.732.285l-.691.028c.166-.473.33-.947.491-1.42Zm-1.301 23.01c-.203-.699-.41-1.4-.613-2.101l2.63-.763c.07-.003.145-.009.216-.015a3.296 3.296 0 0 0-.022.197l-2.211 2.682Zm-2.036-5.757c.259-.843.449-.972.919-1.439l.396.15.108.373c-.292.286-.584.572-.875.86-.184.017-.366.037-.548.056Zm.669 1.439-.669-.734c.473-.235.951-.47 1.423-.705a325.9 325.9 0 0 1-.37 1.415l-.384.024Zm-1.499 6.532-.593-.488.439-.027 2.195-1.699c.069.577.142 1.155.212 1.731-.557.381-1.121.766-1.682 1.147-.19-.222-.379-.443-.571-.664Zm.108 16.479c-3.425.146-5.47-.725-8.274-.971l-3.198-6.318-.614-.633c5.377-.637 8.758-3.226 12.741-5.015 1.411 1.335 4.604 8.153 1.791 11.172-.668 1.032-1.425 1.134-2.446 1.765Zm-14.711-7.097c.427-.026.857-.055 1.289-.083 1.938 1.296 3.258 3.621 4.183 5.757-1.897-.545-3.797-1.094-5.693-1.642.422-1.438.6-2.9.22-4.032Zm-4.089-5.433c2.137-.617 4.271-1.23 6.408-1.846 3.361.329 6.722.658 10.085.984.06.171.122.339.183.507-3.004 1.348-6.419 2.484-9.863 4.225-3.73.296-4.629-1.093-7.214-2.007.136-.623.27-1.241.401-1.863Zm-.401 6.781.128-1.248 2.454-.183c.201 1.086.417 1.692.114 2.879l-2.696-1.448Zm-2.846 2.255c.317-.178.636-.351.953-.528 1.17-.772 2.05.26 3.316.664-.169.164-.336.33-.504.496l-3.765-.632Zm2.763-2.247a67.731 67.731 0 0 1-.926-.421l-.414-1.018 1.423.089-.083 1.35Zm-4.186 0c.475.408.948.813 1.423 1.217-.003.754-.068.669-.238 1.662l-1.185-2.879Zm-3.691-5.396c1.335-.404 3.117-.315 5.114-.36l-1.858 1.439-3.834-.376.578-.703Zm-3.425-72.124c2.642-2.52 9.273-1.767 10.935-.167.15-.012.301-.026.45-.04-2.212 2.056-5.634 2.294-7.737 4.328-1.647-1.096-3.01-1.798-3.648-4.12Zm14.536 4.12 1.118 1.268c-.997.058-2.045.117-3.088.205-2.356.2-4.681.55-6.307 1.392l-.21.014-.356-.55c1.993-1.012 4.167-1.825 6.873-2.166a21.6 21.6 0 0 1 1.76-.148l.21-.014Zm5.544-7.195c1.839 1.844 4.588 2.932 5.536 5.757-3.864-1.791-9.798-1.765-12.808-4.613 2.656.564 4.91.355 7.272-1.144Zm1.267 10.074c1.762.242 3.522.483 5.278.722.141-.01.278-.022.414-.034-1.409 1.21-2.82 2.42-4.233 3.63-.664-1.334-.825-3.14-1.459-4.318Zm6.782 6.156-1.09-.166 1.423-.233a87.55 87.55 0 0 1-.333.399Zm-1.09-3.44c.433-.424.87-.85 1.303-1.277.042.48.078.96.12 1.44-.313-.07-.628-.137-.944-.207-.158.017-.321.029-.479.044Zm2.582 47.632-.624.025c-.182-.168-.358-.336-.535-.503.137-.182.272-.363.412-.544l1.011-.393c-.09.471-.176.942-.264 1.415Zm-1.134 2.624c.173-.201.35-.401.524-.602l.045-.558.829 1.315-1.423.124.025-.279Zm-.564 4.597c-.294-.353-.588-.705-.884-1.057l2.846-.383-1.356 1.398c-.201.014-.404.026-.606.042Zm.539 4.317-2.846-.341c.667-.366 1.338-.731 2.006-1.098.28.478.562.958.84 1.439Zm-1.996-4.061.573.546c-.687.176-1.371.354-2.061.529l-2.208.108c1.023-.48 2.051-.961 3.077-1.439l.619.256Zm-7.966-62.142c1.663.045 3.42.465 4.27 1.439-1.148-.114-3.208.071-3.729-.81-.176-.21-.36-.42-.54-.63Zm1.446 5.756c.812.71 1.097 1.544.949 2.879-1.254-.432-.926-1.8-.95-2.879Zm1.401 9.073c.015-.082.027-.164.044-.245 2.835-.615 3.449.367 2.156 1.247-1.115-.152-1.626-.572-2.2-1.002Zm3.645 36.982.624.155a6.733 6.733 0 0 0-.023.199c-.468.361-.933.724-1.4 1.085l.582-1.423c.076-.007.146-.011.217-.016Zm-.784-35.103 1.06-.877.348 1.44-1.423-.313c.004-.084.01-.168.015-.25Zm4.254 38.485-3.438.894c-.277.014-.555.027-.831.042.006-.049.015-.097.022-.145 1.291-.251 2.116-.678 2.877-1.294l1.204.225c.055.092.112.185.166.278Zm-2.455-3.382-.391-.797c.325-.213.653-.429.98-.642.148.081.295.159.443.237l-.562 1.16-.47.042Zm-8.93 9.952c.564-.437 1.13-.876 1.694-1.317l5.245.45c.059.129.117.259.177.388l-3.542 2.041c-1.313-.215-2.45-.798-3.13-1.593-.147.012-.295.021-.444.031Zm-2.635.123 2.635 1.439c-1.423-.249-2.846-.501-4.269-.749l1.634-.69Zm-.21 2.938-.019.348c-.272.15-.54.3-.81.451-.2.023-.396.052-.595.075.006-.116.016-.231.022-.346.62-.823.515-.548 1.401-.528Zm-6.71-58.573a35.575 35.575 0 0 0-.406-.43c1.412-.77 3.642-1.134 5.836-1.312 1.807-.146 3.586-.168 4.858-.192.23 1.439.461 2.878.69 4.318-1.856-.204-3.635-.445-5.548-.533a29.078 29.078 0 0 0-4.962.181 217.64 217.64 0 0 0-.469-2.032ZM89.48 117.1c.116.203.231.405.348.607L89.493 119c-1.31.101-2.621.2-3.934.3.421-1.285 1.05-1.902 1.726-2.878l2.195.678Zm-4.852-4.996c-1.787-.098-4.241-1.406-4.762-2.878l5.693 1.447-.93 1.431Zm2-.076c-.358.027-.712.051-1.07.076.012-.112.028-.226.038-.341.395-.365.787-.734 1.182-1.098l-.15 1.363Zm-3.916-52.63 1.732-.544 1.115 1.394-1.17.045c-.557-.299-1.118-.597-1.677-.895Zm-.022 61.793-.268.943c-.14.012-.277.027-.414.045-.239-.481-.479-.962-.719-1.44l1.423.146c-.007.102-.016.203-.022.306Zm.792-6.208c1.108.222 2.214.447 3.319.67l.18.449-2.578 3.198-3.114-.457 2.193-3.86Zm24.846-45.104.642-.941.233-.01 1.786.449.185.254-2 .736-.846-.488Zm3.848-4.651-1.002-.618c1.022.374.434-.044 1.002.618Zm-.321 6.578c-.229-.192-.455-.384-.681-.577.474-.288.948-.576 1.423-.862-.248.479-.496.96-.742 1.44Zm-.681 10.075 2.212.547c.595.231.582.295.634.892-.951-.364-2.541-.614-2.846-1.44Zm.216-3.92.306-.398c.302.48.602.96.901 1.44l-1.423-.277.216-.766Zm-28.825 47.352.148.378-1.917.732-.93.073c.006-.065.011-.13.02-.196.218-.341.434-.682.654-1.022.908-.419.929-.146 2.025.035Zm-4.122-72.216c1.244.917 1.562 2.057 1.373 5.756-.82-1.046-1.314-3.257-1.373-5.756Zm.82-2.879-.108 1.042c-.238.019-.475.035-.712.052.27-.364.545-.727.82-1.094Zm-.82 1.44c-.036.346-.067.693-.108 1.04-.436-.082-.879-.163-1.315-.243l1.083-.772c.114-.01.23-.017.34-.026Zm0 83.473c.233-2.443.47-4.885.704-7.327 1.662-.437 3.326-.872 4.989-1.308-1.749 2.793-3.495 5.584-5.245 8.372-.149.089-.299.178-.448.263Zm.352-19.693.765-.455c.699.828.072 2.017-.582 2.878-.552-.515-.612-.833-.467-1.999l.284-.424Zm-4.62-.704c.547-.875 1.094-1.752 1.639-2.63.877.513 1.755 1.026 2.63 1.54-.901 1.406-1.809 2.81-2.717 4.217-.818-.724-1.318-1.792-1.553-3.127Zm0 11.271c.87-.796 1.748-1.591 2.62-2.387l1.243.111c.135.223.268.448.405.672-.107.698-.21 1.397-.314 2.095l-3.955-.491Zm-4.27-1.954 3.13-1.872c.796.124 1.588.248 2.383.374.058.108.12.217.18.327-.838.726-1.673 1.451-2.507 2.177-1.255-.13-2.087-.462-2.74-1.031l-.446.025Zm-.415-2.781 1.142-.531.492.106.204.237c-1.102.366-2.212.732-3.316 1.097-.316-.111-.633-.223-.953-.333l2.43-.576Zm-3.854-1.352c.278-.674.558-1.348.835-2.024 1.56-.202 1.926.566 3.093 1.05.11.17.226.342.34.513-.58.398-1.161.793-1.742 1.19l-1.415.092-1.111-.821Zm-2.847 5.907 2.07-3.646c1.376-.002 1.542.112 2.109.837.249.42.034.195-.515.289-.044.419-.084.836-.128 1.256.721.112 1.44.221 2.157.335-.422 1.05-.49.912-1.133 1.58-2.118.115-3.077-.29-4.56-.651Zm-2.397-5.086c1.206.364 2.41.726 3.619 1.087.066.143.132.287.202.43l-2.324 2.801-3.369-1.103c.624-1.07 1.25-2.142 1.872-3.215Zm-13.94-3.889c.016-.144.03-.286.047-.428l2.018 1.552c.06.136.117.273.175.41-4.201 3.232 2.222 13.776 9.532 6.946l3.142 1.258c-1.21 2.151-3.285 2.998-5.471 4.21-5.227.435-12.542-8.077-9.443-13.948Zm4.875 1.474c.027.325.052.649.078.976-.389-.292-.775-.582-1.161-.874-.089-.188-.175-.377-.262-.565l1.345.463Zm7.193 6.112c-.866.669-1.735 1.34-2.603 2.006-5.117.537-7.191-2.997-7.358-7.342l.996-1.206c.147-.01.293-.023.44-.033 2.578 2.026 4.856 5.115 8.354 6.138.055.146.113.291.171.437Zm-4.959-20.967c-.466-.34-.495-.502-.733-1.071.327-1.229.65-2.461.976-3.691.38-.331.759-.665 1.138-.995.244.358.49.714.732 1.07l-2.113 4.687Zm-.733 1.245c.748-1.765 1.497-3.53 2.247-5.293l.46-.27c1.033 1.819 2.53 2.643 2.985 5.112l-3.38 3.524c-1.049-.766-1.78-1.766-2.312-3.073Zm4.27 4.4c.952-.923 1.902-1.845 2.855-2.767l1.413 2.879c-1.422-.039-2.844-.075-4.269-.112Zm7.115-29.08c-1.35 2.874-3.143 4.826-4.218 7.604-.468-2.526 2.36-6.156 3.272-8.387.144-.083.289-.164.433-.249l.513 1.032Zm0-7.916c2.114-.654 3.535-1.852 5.051-3.19l.64 1.923c-.599.797-1.196 1.598-1.795 2.395-1.3-.375-2.597-.752-3.897-1.128Zm7.115.145-.771.983-.652-.11.016-.156c.431-.392.863-.782 1.292-1.174.037.153.077.305.115.457Zm-1.122-6.199.225-.014.897 1.884c-.114.333-.23.663-.34.994-1.3-.68-1.249-1.486-.782-2.864Zm-.263 41.723 1.314.938c-.453-.199-.901-.396-1.352-.59.01-.118.023-.235.038-.348Zm-.022 1.439c.47.202.938.405 1.407.609a5.273 5.273 0 0 0-.023.174c-1.003.698-2.012 1.397-3.017 2.095-.869-.385-.975-1.16-1.23-2.01l.023-.175 2.84-.693Zm-4.214-2.879 1.352.543c-.242.141-.48.282-.723.422-.235.027-.467.051-.7.077.021-.345.045-.693.07-1.042Zm-.071-28.784c1.709.485 1.168.163 1.243 1.44-.787-.457-.84-.676-1.243-1.44Zm0 25.709c.038-.415.079-.827.118-1.242.663.459.89.733 1.305 1.439-.477-.067-.95-.133-1.423-.197Zm2.846-17.973c-.534.687-.512.496-1.423.9.208-.48.415-.96.625-1.44l.798.54Zm0-5.787-.893.93c-.896-.507-.471-.305-.07-1.236l.534-.204c.145.17.288.34.429.51Zm-.114-2.45c-.436-.312-.874-.624-1.31-.938 1.01.384.776.15 1.31.938Zm-2.732 26.407c.474.378.947.755 1.423 1.131-.729-.019-1.116-.174-1.423-1.131Zm4.269-.054-.58.054c-.165-.306-.332-.611-.497-.918a57.027 57.027 0 0 1-.346-.449c.256-.025.513-.049.77-.072.218.462.434.923.653 1.385Zm-.786-26.65c-.212-.215-.427-.428-.637-.641.626.436.21.01.637.642Zm.09 23.702c-.241-.503-.485-1.004-.727-1.506l.308-1.237.18-.012c.31.959.624 1.918.935 2.878l-.696-.123Zm-3.73 16.745.157.193-.51 1.895c-1.048-.417-2.12-1.497-2.337-2.878.899.263 1.794.525 2.69.79Zm-4.113 2.088c.476.419.948.839 1.423 1.259-.91-.398-.966-.381-1.423-1.259Zm2.457-12.757c.055.415.116.83.172 1.244l-1.206-1.44 1.034.196Zm-1.407 6.729c-.35-.868-.702-1.738-1.05-2.607 1.242.478 2.217 1.9 2.846 2.878l-1.796-.271Zm1.118-25.623c.117-.005.238-.008.354-.011-.347.48-.691.959-1.04 1.439-.172-.355.036-.696.615-1.113.021-.106.047-.21.071-.315Zm-.745 12.37c-.094.191-.19.38-.285.571l-.818-.633-.32-.684 1.116-.122.307.868Zm-9.961 12.085c2.853 1.852 7.696 3.568 8.538 7.196-3.306-1.568-6.529-4.391-8.538-7.196Zm7.395-1.39 1.143 1.39-2.846-1.439 1.703.049Zm10.421 4.269-2.162-2.17c1.26-1.196 2.522-2.39 3.782-3.587l.487 3.947-2.107 1.81Zm2.107 2.405c.128-.313.251-.626.378-.939.166-.01.332-.019.502-.027.182.479.362.959.543 1.439l-1.423-.473Zm1.918-5.284c-.165-.48-.328-.958-.495-1.439.347.064.693.127 1.032.191-.177.415-.357.833-.537 1.248Zm-1.918-48.463c.004-.041.008-.083.014-.126l1.41-.344c-.33.48-.658.96-.985 1.44l-.439-.97ZM58.403 93.394l-1.306-2.878c1.672.366 1.405 1.554 1.306 2.878Zm-3.486 1.44c-1.216-.844-1.994-2.518-2.09-4.318 2.497.59 2.362 1.57 2.847 3.843l-.757.475Zm-1.471-7.51c-1.814-1.71.83-8.564 1.993-10.14.611-.774 1.386-.76 2.408-1.06.225.058.447.117.673.174-1.71 3.022-2.866 7.132-3.274 11.34-.6-.106-1.199-.21-1.8-.314Zm-2.656 23.341.87 1.46c-.257.603-.518 1.206-.778 1.81l-.447.473c.635.09.777-.458 1.734-1.232 1.841 2.988 4.663 5.838 7.774 7.463-.565.992-1.134 1.985-1.7 2.979l-5.138-3.304c-.59-1.087.223-2.335-.723-3-.854-.603-1.96.269-2.83.007l-2.416-2.211c.708-1.581 1.391-3.132 2.798-3.94.287-.169.57-.338.856-.505Zm-4.92-15.87c.18-1.415.487-2.878.835-4.262.065-.005.129-.01.194-.017.247 1.427.493 2.853.742 4.28.13.745.257 1.491.387 2.236 1.124 3.104 2.25 6.211 3.377 9.315-2.701-1.475-4.376-4.882-4.136-9.466-.649 1.48-.109 3.806.105 5.107-1.664-1.403-1.878-4.195-1.505-7.192Zm-2.468 1.478a5.233 5.233 0 0 1-.482-1.734c-.08-.684-.07-1.475.026-2.42.08-.174.162-.345.244-.516l1.1-1.087-.622 4.023c-.087.579-.177 1.155-.266 1.734Zm99.08 14.392-2.846-1.095 2.762-.344c.027.479.055.96.084 1.439Zm-75.31 23.424c.247-.133.499-.266.746-.397-.283.477-.575.96-.86 1.437l.113-1.04Zm-21.46-49.33-1.213-.118c-1.506-.49-2.927-2.246-3.056-4.2 2.311.208 3.093 1.3 4.235 2.632.011.561.025 1.123.035 1.686Zm-.167-.12c.165-3.105-2.212-5.044-5.298-4.96.529-4.366 4.33-6.596 7.72-8.062l.652-.048c-.568 5.477-.137 10.194-2.189 14.932-1.515 3.492-6.887 3.427-6.593 8.808.007.146.018.298.035.452.766 7.161 8.573 8.618 9.654 14.915-11.572 5.869 2.533 30.545 11.686 16.051 1.638.235 3.1.977 5.139.262.947-.523 1.135-.947 1.503-2.037l3.27 1.686.173.415c-3 2.319-5.112 5.501-8.33 7.68.1-.295.203-.591.307-.882-.283-.049-.564-.101-.846-.151-.15.083-.305.167-.457.249-.14.65-.277 1.305-.42 1.956 1.838 1.87 7.411-4.902 9.043-6.232-.924 3.22-3.203 4.875-4.468 7.821.128.135.26.269.39.401 2.403-1.718 5.35-6.578 5.798-10.277l3.6.594c-4.513 6.087-16.103 19.47-22.194 23.042.922-2.905 2.404-5.123 3.147-7.509-.146.01-.29.019-.433.031-.13-.135-.26-.268-.391-.4-1.481 2.913-3.927 4.955-4.363 8.883.31.48.64.738.972.999 7.247-1.206 19.342-19.371 25.125-24.33-1.564 15.667-9.982 18.113-17.282 27.606 6.633-3.301 10.658-11.723 16.336-16.403-.628 6.55-2.189 21.187-6.12 23.785.216-.018.433-.032.651-.048 4.404-2.733 4.663-13.971 6.13-19.718l.626-6.038c2.098-2.941 4.196-5.88 6.294-8.815.153-.082.304-.167.456-.247.704 2.203 3.89 4.594 7.343 3.952l2.473-1.036c2.076.773 4.148 1.546 6.218 2.321.816 8.92.503 13.922-5.158 20.717 5.784-2.949 7.91-14.317 5.984-20.348 13.451 1.554 12.913-2.976 10.359-12.751.79.011 1.578.025 2.367.04-.434-.654-1.615-.168-2.516-.67-.409-.263-.328-.214-.584-.601 3.201-3.6 10.9-.024 9.288 5.951 2.21-4.957-2.681-9.359-7.395-7.589 2.013-2.379 4.451-4.335 5.726-7.486.154-.083.304-.166.458-.248 3.688 3.866 7.381 7.734 11.071 11.599l.652-.047c.168-.227.333-.453.499-.68l-10.549-12.494c.376-.172.752-.342 1.132-.512.609-.578 1.279-.769 1.95-.679a98.692 98.692 0 0 1-.561-.28c5.658.568 12.875 5.268 18.775 3.753.545-.943.569-1.455.242-2.372 6.284.158 17.589-1.94 21.186-4.987-9.665 2.027-20.559 2.714-29.439 1.528-2.624-.305-5.245-.612-7.868-.918l-.438.032 2.116-3.795c6.488-.119 23.492-.283 26.931-4.34l-.757-1.015-2.968-.424c-.256.377-.291.736-.332 1.097.784.084 1.563.168 2.344.254-5.097 1.281-19.294 3.984-23.931 2.406-.488-.589-.127-2.64-.106-4.118a5.358 5.358 0 0 0-.031-.795c6.662-1.987 11.609-6.456 13.637-13.207 1.16-3.86.391-8.938 2.897-11.345 1.601.14 1.924.812 3.099 1.27-.623-.862-1.509-1.34-2.62-1.734l-2.086 1.438c-1.908.736-3.905-1.19-7.138.312-2.626-2.24-4.11-5.785-7.657-7.14l-.367-.616c1.438-1.392 2.871-2.782 4.308-4.172-1.413 1.176-2.848 2.566-4.285 3.955a987.93 987.93 0 0 0-2.884-1.284c-.054-.14-.112-.278-.17-.416 3.284-2.322 6.202-3.184 9.943-2.445.176.342.36.686.539 1.03-.175.299-.329.38-.479.463-.418-.112-.841-.223-1.259-.337.543.319 1.108.42 1.671.521.157-.156.318-.31.475-.463l.071-.648c-.817-.727-1.066-1.249-2.668-1.302l.766-1.126c-1.837 1.257-5.557 1.592-7.384 2.685l4.217-3.309.502-.678c-2.601 1.546-5.2 3.095-7.8 4.642-1.665-.116-3.436-.892-4.334-1.822l-.435.032c3.09-2.082 6.175-4.165 9.26-6.247l-.148-.633a17761.93 17761.93 0 0 0-10.538 6.13l-3.361-.824.311-3.019 24.134-18.904c.143-.012.288-.022.434-.032a73.953 73.953 0 0 1-.345-.832c-.896-.426-4.568 2.546-5.955 3.437-5.342 3.42-10.067 7.675-15.324 10.763 2.17-2.75 6.144-5.487 6.798-9.493l-1.064-.135c-.548.468-1.098.937-1.652 1.406.602-.258 1.203-.516 1.802-.775-1.164 3.523-6.435 9.827-9.403 11.825l-.345-.831c1.933-3.25 3.838-7.61 2.943-11.777l-1.626-.951c-.578.044-1.155.087-1.735.129 1.112.439 1.867.547 2.684 1.086.524 4.04-1.471 6.77-2.543 10.035-.155.082-.305.164-.457.249-.718-1.32-.672-1.958-2.141-2.199-.044-.281-.086-.564-.128-.847.333-.453.668-.904 1.003-1.357.231-.16.462-.321.695-.48.235.439.245.284.321 1.046.254-.374.29-.734.326-1.095l-.82-.366c-.726.766-1.45 1.534-2.174 2.3-1.821-1.213-3.818-2.486-6.37-2.954 1.443-3 5.845-7.815 3.57-11.61-2.769-4.616-12.233.706-15.698 4.367-.464.493-.824.957-1.042 1.363.221-.179.579-.46 1.042-.803 3.42-2.546 12.528-8.634 14.501-3.768 2.07 2.717-1.895 7.943-2.978 10.067-3.689-.373-7.549-.726-11.517-.647-4.008.081-8.13.6-12.303 1.974-2.017.665-10.6 5.794-10.927 5.73l-3.916-3.78-8.187-4.104c-.016.143-.029.286-.043.431-.16.155-.321.309-.479.464 3.496 2.952 6.996 5.906 10.49 8.86l-1.603.974c-4.315-3.263-7.29-5.245-13.713-6.91l-1.083.08c3.752 2.577 7.527 4.94 11.301 7.301l.757 1.015c-2.695 1.136-3.834 3.485-6.112 4.946-3.556-1.696-6.847-3.228-11.156-4.53-.1.293-.205.586-.305.88 2.692 1.727 5.383 3.456 8.075 5.184l.433-.031c-.464.318-.927.639-1.389.958-.646 2.16-1.906 4.663-2.954 7.71-4.023 3.268-9.24 3.072-10.049 9.732-1.283.352-2.195.462-3.365 1.318l-.089.863c.734 1.03 7.272 3.788 8.835 4.058l.959-.927Zm47.744-46.043.595.109c-.267-.032-.534-.066-.8-.099l-.41.02c.629-1.174 2.484-1.463 4.27-1.331-.042.28-.082.562-.126.842-1.161.06-2.326.118-3.487.177-.012.094-.028.187-.042.282Zm2.493 1.548 1.679-.551c.724-1.203 1.137-2.477.767-3.646-1.724-.34-2.72.08-4.339.757-.292.478-.586.959-.875 1.437-.113.185-.228.369-.34.554.112.125.22.235.34.333.545.452 1.206.608 2.421.508.33.566-.051.315-.654.475.333.043.666.089 1 .133Zm41.388 12.953-1.804.337c.371-.025.743-.05 1.111-.078l1.267.544-1.923 3.514c.988-1.164 1.974-1.991 2.392-3.759l-1.043-.558Zm-10.342 56.129c-.45-.792-.939-1.317-1.423-1.439.433.406.931.882 1.423 1.439Zm-5.692 17.27c-.474.277-.95.551-1.423.823.364-.034.728-.069 1.093-.102.112-.242.222-.48.33-.721Zm5.692-17.27c1.445 1.632 2.533 4.753 2.219 7.196 1.64-3.542-.232-5.751-2.219-7.196Z"/></svg>