<svg xmlns="http://www.w3.org/2000/svg" viewBox="37 2 26 22"><path fill="currentColor" fill-rule="evenodd" d="M61.542 22.641a3 3 0 0 0-.028-.374 8 8 0 0 1-.064-.631c-.025-.39-.028-.525 0-.672.033-.154.03-.201-.008-.297a.7.7 0 0 1-.043-.228c0-.063-.013-.157-.026-.214a2.4 2.4 0 0 1-.088-.684c0-.17-.015-.344-.028-.392-.026-.085-.033-.088-.184-.089-.086 0-.164-.013-.172-.026-.023-.035-.205-.06-.376-.058-.074.002-.142-.01-.155-.028-.018-.028-.177-.068-.457-.107a.7.7 0 0 1-.182-.046.8.8 0 0 0-.235-.048c-.49-.048-.723-.08-.75-.106a.4.4 0 0 0-.154-.026c-.07 0-.207-.02-.308-.041a7 7 0 0 0-.542-.08c-.197-.027-.453-.056-.569-.074a22 22 0 0 0-1.139-.124 21 21 0 0 0-.459-.026 1.7 1.7 0 0 1-.323-.045.23.23 0 0 0-.175.007c-.076.028-.106.028-.133.002-.041-.04-.14-.04-.182 0-.026.026-.05.026-.096 0a1.2 1.2 0 0 0-.424-.066.4.4 0 0 1-.154-.02c-.022-.015-.065-.015-.103 0a.22.22 0 0 1-.14-.004c-.04-.018-.262-.028-.491-.03-.328 0-.44-.011-.508-.044-.08-.04-.1-.04-.164-.008-.056.033-.085.033-.124.008a.33.33 0 0 0-.154-.035c-.055 0-.096-.013-.096-.028 0-.044-.08-.03-.199.035-.096.055-.116.056-.144.02-.02-.022-.063-.035-.1-.03a.23.23 0 0 1-.127-.025c-.074-.04-.503-.023-.693.03-.124.035-.137.033-.174-.017-.033-.048-.079-.055-.392-.061a26 26 0 0 0-.472-.007c-.066 0-.118-.01-.118-.023 0-.011-.083-.022-.187-.025a.7.7 0 0 1-.214-.035c-.035-.036-.341-.036-.364 0-.025.04-.173.035-.187-.008-.01-.028-.334-.06-.785-.073-.015 0-.133.004-.262.01-.136.007-.243 0-.253-.015-.008-.015-.116-.035-.238-.043-.12-.01-.25-.028-.283-.041-.073-.026-.085-.11-.015-.11.083 0 .236-.063.354-.143a.4.4 0 0 1 .202-.077.4.4 0 0 0 .186-.063c.053-.037.166-.088.25-.114a.76.76 0 0 0 .316-.202c.153-.142.166-.15.27-.134.061.008.14.033.175.048.048.025.073.025.094 0a.14.14 0 0 1 .078-.035c.024 0 .084-.035.134-.078a.6.6 0 0 1 .192-.117.4.4 0 0 0 .134-.07c.015-.017.103-.043.194-.05.442-.041.508-.05.599-.092a.7.7 0 0 0 .153-.105.3.3 0 0 1 .17-.076c.058-.008.176-.033.26-.055.085-.025.231-.059.327-.079.16-.03.313-.122.313-.187 0-.013.046-.048.106-.074.056-.028.122-.059.146-.07a.8.8 0 0 1 .19-.025.46.46 0 0 0 .22-.046.45.45 0 0 1 .198-.052c.073 0 .14-.009.155-.02a.8.8 0 0 1 .201-.02c.099-.003.23-.016.293-.028.182-.038.602-.016.735.037.155.063.234.025.392-.197.072-.103.085-.258.02-.258-.033 0-.042-.045-.042-.235 0-.127-.013-.24-.028-.25-.015-.009-.026-.08-.026-.154a.7.7 0 0 0-.032-.215c-.044-.105-.086-.434-.081-.609.002-.085-.007-.146-.025-.146-.02 0-.03-.081-.03-.203 0-.111-.01-.215-.025-.23-.026-.026-.074-.295-.114-.664a5 5 0 0 0-.055-.361 2 2 0 0 1-.024-.396c.002-.066.04-.203.01-.263-.015-.025-.073-.048-.098-.065a.4.4 0 0 0-.157-.066.14.14 0 0 1-.094-.043q-.036-.04-.18-.04a1 1 0 0 1-.267-.043.6.6 0 0 0-.177-.038.7.7 0 0 1-.18-.028.7.7 0 0 0-.268-.015c-.109.013-.151.007-.169-.023-.015-.025-.133-.05-.382-.072-.201-.018-.49-.046-.64-.061l-.39-.038a.5.5 0 0 0-.187.018c-.059.022-.091.018-.147-.018s-.083-.04-.126-.015c-.043.022-.079.022-.134 0-.072-.028-.404-.055-.92-.068-.139-.005-.264-.022-.305-.046l-.07-.037.067-.013a.3.3 0 0 0 .139-.076c.056-.053.103-.066.222-.066.106 0 .16-.013.182-.043s.091-.048.238-.056c.3-.015.472-.04.472-.07 0-.044.217-.136.319-.136.056 0 .124-.011.153-.029.038-.02.063-.015.094.016.053.055.063.052.149-.016a.3.3 0 0 1 .15-.052c.045 0 .082-.016.082-.03s.022-.027.05-.027c.03 0 .083-.035.114-.076a.5.5 0 0 1 .142-.109c.073-.03.08-.028.08.02 0 .107.256.106.44-.002a.4.4 0 0 1 .133-.055c.023 0 .04-.01.04-.028 0-.016.074-.026.164-.026q.165.001.197-.043c.048-.057.162-.053.172.007.007.04.013.04.05.004.029-.026.123-.048.25-.058.116-.01.215-.03.22-.048.024-.074.141-.167.207-.167.04 0 .103-.013.142-.033.056-.024.089-.02.172.02.088.04.118.041.217.013a.8.8 0 0 0 .168-.072.24.24 0 0 1 .116-.04c.035 0 .07-.01.079-.028.013-.018.074-.02.16-.01.098.014.143.007.16-.016.016-.022.036-.025.074-.007a.5.5 0 0 0 .174.028c.066 0 .131.018.142.035.035.055.36-.026.36-.088 0-.015.02-.024.042-.024.037 0 .043-.053.043-.3 0-.164-.017-.344-.033-.394a2 2 0 0 1-.056-.334c-.03-.336-.096-.9-.106-.9a2 2 0 0 1-.013-.187q-.01-.187-.056-.232-.044-.044-.028-.132a1 1 0 0 0-.013-.24 7 7 0 0 1-.096-.778 4 4 0 0 0-.04-.308c-.015-.08-.022-.182-.015-.22a.8.8 0 0 0-.008-.191c-.02-.114-.033-.13-.106-.132a.4.4 0 0 0-.177.038.9.9 0 0 1-.263.053c-.094.004-.225.02-.293.035-.122.028-.194.017-.23-.033q-.018-.028-.093.005a.6.6 0 0 1-.192.035.6.6 0 0 0-.215.043l-.142.07c-.068.033-.227.029-.262-.008-.046-.043-.639-.033-.708.018-.03.02-.074.03-.096.024-.022-.008-.06.003-.088.025a.3.3 0 0 1-.149.059c-.087.017-.103.013-.113-.04-.018-.053-.028-.056-.139-.038a1.2 1.2 0 0 1-.235.018.6.6 0 0 0-.19.022.16.16 0 0 1-.118.005c-.026-.015-.076-.013-.124.002-.061.02-.09.018-.127-.013-.063-.055-.275-.08-.358-.04-.053.024-.099.02-.217-.02-.154-.053-.232-.049-.475.022-.085.024-.154.03-.186.015a.5.5 0 0 0-.17-.025c-.07 0-.134-.01-.14-.025-.028-.044-.543-.053-.747-.011-.153.033-.21.035-.258.007a.4.4 0 0 0-.197-.015c-.262.035-.618.002-.669-.059-.028-.033-.045-.035-.111-.008a.2.2 0 0 1-.157.002 1 1 0 0 0-.275-.028 6 6 0 0 1-.365-.026.8.8 0 0 0-.234.003.3.3 0 0 1-.175-.005 4 4 0 0 0-.684-.053.5.5 0 0 1-.144-.015 2 2 0 0 0-.27-.03 1 1 0 0 1-.27-.038.15.15 0 0 0-.087-.03c-.03 0-.073-.013-.09-.03-.03-.031-.218-.071-.659-.143a1.2 1.2 0 0 1-.21-.045.36.36 0 0 0-.22-.086.4.4 0 0 1-.133-.024 2 2 0 0 0-.188-.07c-.275-.097-.406-.15-.437-.18-.015-.02-.053-.033-.076-.033-.026 0-.066-.022-.094-.053a.3.3 0 0 0-.129-.067.6.6 0 0 1-.212-.136 1.6 1.6 0 0 0-.192-.16c-.063-.04-.079-.088-.07-.199a.056.056 0 0 0-.038-.06c-.026-.01-.04-.051-.04-.104a.4.4 0 0 0-.031-.14.6.6 0 0 1-.033-.194c0-.076-.015-.144-.026-.153-.013-.007-.022-.056-.022-.106s-.008-.1-.018-.109-.022-.063-.025-.122c-.016-.253-.064-.325-.188-.293-.055.016-.16.2-.16.28 0 .03-.006.061-.014.07-.031.033-.044.584-.013.602.015.008.037.116.048.238.008.12.025.234.04.25.043.054.13.57.166.954.017.208.04.396.045.417.009.025.02.09.025.15a.6.6 0 0 0 .038.15 1.2 1.2 0 0 1 .043.228c.008.1.028.219.041.264.013.044.038.184.055.306.018.124.05.235.073.251a.1.1 0 0 1 .04.074c0 .026.05.098.11.164.062.065.112.136.112.155 0 .017.03.032.07.032.056 0 .07.013.07.07 0 .069.112.154.208.154.022 0 .068.038.101.083.055.073.074.081.157.066.076-.013.103-.007.136.041.024.033.053.053.066.046.015-.009.063.002.109.025.058.03.1.036.153.016.083-.03.321.04.321.096 0 .048.063.068.136.05a.18.18 0 0 1 .12.026c.094.06.269.088.317.048.053-.041.28.043.303.116.013.041.041.053.142.048.076-.005.136.008.15.028q.02.041.1.018a1.4 1.4 0 0 1 .247-.028c.043-.003.083.008.107-.005.032-.018.058-.061.106-.094.11-.08.289-.074.3.013.002.02-.014.035-.008.046.01.013.033-.018.055-.028.055-.03.111-.048.124-.041.016.008-.013.032.005.048.018.017.056-.023.111-.026.09-.008.223-.008.333-.002-.005.022.015.065.081.141.022.025-.066-.017-.074-.04-.007-.02-.037-.038-.065-.038a.13.13 0 0 0-.084.037c-.02.025-.048.041-.065.041s-.041.018-.05.04-.04.04-.069.04l-.505.214c.011.023-.052.05-.072.068a.5.5 0 0 0-.083.099.5.5 0 0 1-.177.088 1 1 0 0 0-.18.074c-.035.045-.14.087-.154.063-.02-.038-.17-.038-.192 0-.011.015-.046.026-.077.026-.065 0-.343.103-.596.222a2 2 0 0 1-.202.083c-.012 0-.03.009-.035.02a1 1 0 0 1-.161.137c-.084.061-.17.132-.19.155-.028.035-.086.048-.223.048-.157 0-.192.008-.247.066a.55.55 0 0 1-.359.157.3.3 0 0 0-.161.04.2.2 0 0 1-.107.04.3.3 0 0 0-.142.066.7.7 0 0 1-.144.086c-.033.01-.066.04-.073.07-.022.076-.153.151-.262.149-.05-.002-.091.008-.091.02 0 .03-.243.111-.34.111-.04 0-.08.01-.088.025a.2.2 0 0 1-.094.043.4.4 0 0 0-.118.055c-.023.02-.13.083-.236.14a1.4 1.4 0 0 0-.21.129c-.01.015-.067.035-.126.043a.6.6 0 0 0-.195.08.3.3 0 0 1-.144.066c-.035 0-.06.013-.06.028s-.025.026-.051.026a.5.5 0 0 0-.169.09c-.105.073-.133.082-.255.072-.182-.018-.245.033-.25.203-.004.13.05.351.103.417a.9.9 0 0 1 .081.24c.025.111.064.236.083.278.023.04.04.096.04.12.003.026.013.055.026.064a.8.8 0 0 1 .073.225c.026.113.056.205.072.205.013 0 .025.02.025.04 0 .04.053.227.127.461.022.07.04.164.04.212s.013.094.033.101c.02.005.035.041.038.076.005.12.046.278.068.265.022-.015.056.118.056.22 0 .038.018.086.041.107.022.022.04.072.04.109 0 .04.015.074.03.078.016.007.044.106.057.22.017.121.05.237.08.283.036.041.056.12.056.186v.114h.181c.1 0 .182-.015.182-.028 0-.028.34-.195.4-.195a.2.2 0 0 0 .087-.04.3.3 0 0 1 .14-.044c.043 0 .098-.013.118-.033a.5.5 0 0 1 .192-.056c.088-.01.205-.03.263-.04.056-.007.118-.03.137-.055.04-.05.07-.046.136.02.068.066.168.07.283.008.066-.033.13-.04.243-.028.142.015.161.01.25-.063.143-.122.288-.136.315-.026.015.053.13.076.13.026 0-.013.09-.025.198-.023.141 0 .207-.01.245-.045a.17.17 0 0 1 .096-.046c.025 0 .045-.01.045-.024s.059-.033.131-.044c.147-.02.286-.072.286-.103 0-.013.018-.022.041-.022s.041.01.041.028c0 .013.03.026.07.026.036 0 .1.013.14.035q.073.03.09.005a.5.5 0 0 1 .172-.06c.085-.014.264-.052.4-.08.135-.026.262-.066.285-.088.03-.033.07-.035.212-.008.273.048.372.041.42-.03.035-.046.05-.053.083-.025.03.024.106-.04.096.005l-.038.164q-.002.008-.008.02a.21.21 0 0 1-.177.118c-.08 0-.136.048-.136.118 0 .026-.017.05-.04.05a.25.25 0 0 0-.117.056.3.3 0 0 1-.129.056c-.035 0-.076.013-.091.028s-.083.033-.151.035c-.107.005-.13.015-.164.094q-.041.089-.101.089c-.033.002-.08.033-.107.073-.037.056-.06.068-.106.055a1.4 1.4 0 0 0-.235-.03c-.146-.008-.19.004-.273.058a.7.7 0 0 1-.116.07c-.009 0-.06.03-.113.073-.099.076-.25.151-.478.247a1 1 0 0 0-.17.086.6.6 0 0 1-.163.08 1.3 1.3 0 0 0-.29.152c-.218.14-.41.192-.496.141q-.061-.042-.07-.007c-.008.018-.04.03-.08.03-.037 0-.1.034-.137.071-.079.079-.099.083-.142.04-.02-.02-.044-.015-.081.022-.12.122-.28.184-.356.142-.036-.022-.061-.01-.112.041a.45.45 0 0 1-.186.103c-.066.018-.217.07-.328.116-.116.046-.255.09-.308.103a.52.52 0 0 0-.265.136c-.028.035-.192.083-.343.106a.18.18 0 0 0-.107.068c-.033.048-.063.058-.129.048-.08-.013-.172.007-.31.063a4 4 0 0 1-.483.111c-.018 0-.066.03-.107.068s-.096.07-.122.07-.055.011-.06.023c-.009.013-.114.035-.236.043-.12.008-.255.038-.301.059a2 2 0 0 1-.341.093c-.142.029-.269.07-.283.09-.04.058.02.727.064.701.013-.007.024.05.024.127 0 .076.016.184.04.234.022.055.03.142.025.212a.7.7 0 0 0 .06.32 1 1 0 0 1 .077.393c0 .149.01.207.04.227.051.028.097.278.104.555.002.112.015.182.04.19.017.005.033.059.033.121s.008.107.024.107c.03 0 .055.118.086.409.013.124.043.268.065.318.025.05.05.121.059.151.015.053.038.061.151.059.205-.002.5.022.52.043.041.041.112.013.195-.08.083-.092.096-.097.319-.11.32-.022.41-.032.54-.067.146-.038.153-.038.153.012 0 .033.02.041.094.026.055-.01.1-.007.111.01s.038.023.059.016q.04-.014.04.025c0 .04.057.073.112.073.016 0 .048-.045.076-.105.041-.088.064-.103.152-.109q.103-.01.105.022 0 .034.076.013c.498-.126.837-.144.96-.07.088.053.142.048.22-.02.035-.03.094-.038.236-.025.535.05.583.05.69.005a.5.5 0 0 1 .164-.043.16.16 0 0 0 .094-.033c.025-.026.05-.025.113.013.056.035.14.048.286.045.11 0 .293.018.407.046.194.046.207.046.232.003.02-.036.06-.049.144-.049l.275.003c.088.002.16-.008.16-.022 0-.018.05-.033.11-.044.062-.01.112-.033.112-.046 0-.015.018-.025.04-.025q.041.001.043.02c0 .045.167.118.273.118.088 0 .132-.018.2-.088.1-.103.136-.085.179.094q.05.199.217.096a.6.6 0 0 1 .238-.046c.159-.004.172-.002.199.066.045.122.207.126.336.008a.3.3 0 0 1 .107-.066.3.3 0 0 0 .091-.024c.028-.013.068.005.109.046.094.093.234.055.452-.134.139-.116.2-.12.22-.01.009.045.009.1 0 .121-.023.061.044.086.24.09.1 0 .218.012.259.024.06.015.091.007.148-.046a.3.3 0 0 1 .187-.07c.192-.008.336-.04.369-.08.028-.036.04-.027.07.058.035.093.044.103.127.088a.45.45 0 0 0 .303-.243c.046-.09.228-.247.286-.247.013 0 .043-.02.068-.044q.007-.002.018.003l.04-.02a.1.1 0 0 1 .076-.03l.022-.034c0 .061.06.046.136-.028.037-.037.078-.07.091-.07.025 0 .026.015.035.195.016.273.02.293.076.328.041.028.066.028.088.007.055-.056.132-.033.132.04 0 .036.01.069.028.069.013 0 .026.032.026.068s.01.073.028.085c.028.018.194-.058.194-.091 0-.059.172-.116.343-.116.125 0 .193-.015.22-.043.025-.023.09-.04.145-.04s.096-.016.096-.029c0-.072.107-.012.177.101.046.07.103.134.126.142a.3.3 0 0 1 .084.055c.02.022.05.028.063.02.033-.022.14.086.133.136-.008.083.008.103.101.103.061 0 .103-.015.114-.04a.06.06 0 0 1 .055-.042c.022 0 .038-.013.038-.03 0-.038.113-.132.159-.136.017 0 .068-.048.109-.106.126-.177.234-.23.234-.12q0 .093.205.181.11.045.139.015c.04-.04.154-.035.154.007 0 .018.028.07.066.116.056.07.076.079.164.061a.5.5 0 0 0 .17-.072c.08-.066.238-.076.258-.018.008.025.05.055.093.07.066.023.09.016.14-.028a.24.24 0 0 1 .126-.052c.076 0 .203-.057.203-.088 0-.013.02-.025.04-.025s.077-.03.123-.07c.1-.083.109-.083.12-.007.008.048.029.06.09.063.043.002.089.025.103.05.033.059.093.059.194 0 .107-.063.22-.015.22.09 0 .088.1.139.199.096.12-.055.194-.101.231-.152.03-.045.04-.04.094.05.035.06.061.14.061.185 0 .088.015.096.23.126.083.01.164.005.217-.017.06-.026.091-.026.121-.003.026.025.073.026.16.005.146-.03.409.002.444.056q.072.123.131.073c.061-.056.116-.041.116.033 0 .026.033.089.074.138.056.07.1.091.17.094.05.002.1-.008.111-.023a.5.5 0 0 1 .13-.093c.06-.04.117-.074.123-.086.04-.052.132-.052.182.003.028.028.066.055.085.055.018 0 .04.017.048.037.011.03.064.035.22.026.134-.01.23-.002.271.02.036.02.07.022.081.007.026-.041.258-.025.35.024a.6.6 0 0 1 .135.106c.03.033.081.058.116.058s.07.02.079.041c.01.029.056.041.166.041q.151 0 .184.041a.12.12 0 0 0 .086.041c.068 0 .278.203.278.271q.001.058.067.074c.04.008.073.033.073.055 0 .02.041.073.096.114.137.103.225.072.332-.13.072-.133.078-.171.076-.38zM46.399 7.878h.003l.002.003q0 0-.005-.003" clip-rule="evenodd"/></svg>