<svg xmlns="http://www.w3.org/2000/svg" stroke="currentColor" style="enable-background:new 0 0 48 48" viewBox="0 0 48 48"><path d="M42.656 16.549c.298-.63.543-1.212.734-1.728.416-1.125-.394-2.322-1.594-2.322h-3.478c-1.153 0-1.828.414-2.15 1.073-2.826 5.791-5.541 8.113-7.237 9.578-.95.82-2.431.141-2.431-1.108V14.44a1.931 1.931 0 0 0-1.932-1.93l-6.091-.01a.969.969 0 0 0-.778 1.549l1.174 1.571c.397.525.612 1.163.612 1.819l.025 6.737c0 1.187-1.438 1.767-2.292.935-2.888-2.813-5.58-8.559-6.484-11.308a1.947 1.947 0 0 0-1.852-1.337l-3.447-.009c-1.294 0-2.239 1.226-1.887 2.46.735 2.578 1.634 5.12 2.729 7.516M9.439 28.066c3.52 5.086 8.35 8.759 14.912 9.426 1.163.118 2.166-.828 2.166-1.997v-4.047c0-1.029.799-1.909 1.828-1.938a5.13 5.13 0 0 1 .126-.002c3.046 0 6.493 4.969 7.686 7.043.344.597.985.961 1.678.961h4.875c1.351.001 2.213-1.452 1.553-2.632-1.684-3.012-5.582-6.531-7.357-8.101a1.174 1.174 0 0 1-.064-1.684 34.412 34.412 0 0 0 2.881-3.562" style="fill:none;stroke-rule:evenodd;stroke-width:3;stroke-linecap:round;stroke-linejoin:round"/></svg>