<svg width="48" height="48" viewBox="0 0 48 48" fill="none" xmlns="http://www.w3.org/2000/svg">
<path d="M41.5 21.1V16.5C41.5 11 37 6.5 31.5 6.5H16.5C11 6.5 6.5 11 6.5 16.5V19.5" stroke-width="3" stroke-miterlimit="10" stroke-linecap="round" stroke-linejoin="round"/>
<path d="M6.5 25.6V31.5C6.5 37 11 41.5 16.5 41.5H31.5C37 41.5 41.5 37 41.5 31.5V26.9" stroke-width="3" stroke-miterlimit="10" stroke-linecap="round" stroke-linejoin="round"/>
<path fill-rule="evenodd" clip-rule="evenodd" d="M24 15.5C19.3 15.5 15.5 19.3 15.5 24C15.5 28.7 19.3 32.5 24 32.5C28.7 32.5 32.5 28.7 32.5 24C32.5 19.3 28.7 15.5 24 15.5Z" stroke-width="3" stroke-miterlimit="10"/>
<path d="M34 13C33.45 13 33 13.45 33 14C33 14.55 33.45 15 34 15C34.55 15 35 14.55 35 14C35 13.45 34.55 13 34 13Z" stroke-width="2"/>
</svg>
