<svg xmlns="http://www.w3.org/2000/svg" fill="none" stroke="currentColor" style="enable-background:new 0 0 48 48" viewBox="0 0 48 48"><path d="M40.5 18.298V36.5a4 4 0 0 1-4 4h-25a4 4 0 0 1-4-4v-1.032M7.5 30.489V11.5a4 4 0 0 1 4-4h25a4 4 0 0 1 4 4v1.564" style="stroke-width:3;stroke-linecap:round;stroke-linejoin:round;stroke-miterlimit:10"/><path d="M16.438 14.5h6a1 1 0 0 1 1 1v17a1 1 0 0 1-1 1h-6a1 1 0 0 1-1-1v-17a1 1 0 0 1 1-1zM24.521 18.896a4.52 4.52 0 1 1 9.042 0 4.52 4.52 0 0 1-9.042 0" style="stroke-width:3;stroke-linecap:round;stroke-linejoin:round;stroke-miterlimit:10"/><circle cx="29.042" cy="29.104" r="4.521" style="stroke-width:3;stroke-linecap:round;stroke-linejoin:round;stroke-miterlimit:10"/></svg>