<svg xmlns="http://www.w3.org/2000/svg" fill="currentColor" viewBox="0 0 48 48"><path d="M13.5 6C9.375 6 6 9.375 6 13.5v2.564a1.5 1.5 0 1 0 3 0V13.5C9 10.997 10.997 9 13.5 9h21c2.503 0 4.5 1.997 4.5 4.5v21c0 2.503-1.997 4.5-4.5 4.5a1.5 1.5 0 1 0 0 3c4.125 0 7.5-3.375 7.5-7.5v-21C42 9.375 38.625 6 34.5 6h-21zm0 8.984a2.522 2.522 0 0 0-2.5 2.5v13.032c0 1.363 1.136 2.5 2.5 2.5h21c1.364 0 2.5-1.137 2.5-2.5V17.484c0-1.363-1.136-2.5-2.5-2.5h-21zm.5 3h17.662l-6.775 5.518a1.5 1.5 0 0 0 0 .002 1.402 1.402 0 0 1-1.79-.002l-4.38-3.572a1.5 1.5 0 1 0-1.897 2.324l1.448 1.182L14 27.706v-9.722zm20 1.967v7.756l-4.277-4.271L34 19.95zm-26.523.336A1.5 1.5 0 0 0 6 21.81V34.5c0 4.125 3.375 7.5 7.5 7.5h14.031a1.5 1.5 0 1 0 0-3H13.5A4.477 4.477 0 0 1 9 34.5V21.809a1.5 1.5 0 0 0-1.523-1.522zm19.908 5.053 4.683 4.676H15.932l4.672-4.674.597.486a4.431 4.431 0 0 0 5.58 0v.002l.604-.49z" style="stroke:none"/></svg>