<svg xmlns="http://www.w3.org/2000/svg" xml:space="preserve" style="enable-background:new 0 0 48 48" viewBox="0 0 48 48"><path d="M39.982 14.675C36.773 9.186 30.817 5.499 24 5.499c-10.217 0-18.5 8.283-18.5 18.5 0 .7.039 1.39.115 2.07M7.84 32.993l-2.301 8.238a1 1 0 0 0 1.232 1.232l8.242-2.3A18.408 18.408 0 0 0 24 42.499c10.217 0 18.5-8.283 18.5-18.5 0-.427-.014-.85-.043-1.269" style="fill:none;stroke-rule:evenodd;stroke-width:3;stroke-linecap:round;stroke-linejoin:round"/><path d="M33.357 30.651c-.398 1.116-2.348 2.191-3.224 2.269-.876.08-1.697.396-5.731-1.194-4.855-1.914-7.92-6.891-8.158-7.208-.239-.32-1.95-2.589-1.95-4.939s1.234-3.506 1.672-3.982c.439-.478.956-.597 1.275-.597.318 0 .637 0 .915.011.341.013.718.031 1.075.825.425.945 1.353 3.307 1.472 3.546s.199.519.04.836c-.159.318-.239.517-.476.796-.239.279-.501.622-.716.836-.239.237-.488.498-.21.974.279.478 1.236 2.042 2.656 3.307 1.826 1.627 3.362 2.13 3.841 2.371.478.239.756.199 1.035-.121.279-.318 1.194-1.393 1.512-1.871s.637-.398 1.075-.239c.438.159 2.786 1.315 3.263 1.554.478.239.796.358.915.557.117.197.117 1.153-.281 2.269z"/></svg>