<svg xmlns="http://www.w3.org/2000/svg" viewBox="0 0 960 600"><style>text{font-family:&quot;Lucida Console&quot;;text-anchor:middle}</style><text style="font-size:10px;fill:#e7969c" transform="rotate(90 256 460)">filter</text><text style="font-size:25px;fill:#393b79" transform="rotate(90 151.5 471.5)">&lt;header&gt;</text><text style="font-size:25px;fill:#de9ed6" transform="rotate(90 187.5 374.5)">&lt;footer&gt;</text><text style="font-size:10px;fill:#6b6ecf" transform="rotate(90 125.5 314.5)">&lt;nav&gt;</text><text style="font-size:10px;fill:#a55194" transform="rotate(90 243.5 435.5)">&lt;section&gt;</text><text style="font-size:10px;fill:#a55194" transform="rotate(90 226.5 523.5)">&lt;h1&gt;</text><text style="font-size:10px;fill:#393b79" transform="rotate(90 83 327)">&lt;h2&gt;</text><text style="font-size:10px;fill:#5254a3" transform="rotate(90 181.5 568.5)">&lt;h3&gt;</text><text style="font-size:10px;fill:#6b6ecf" transform="rotate(90 185.5 465.5)">&lt;h4&gt;</text><text style="font-size:10px;fill:#9c9ede" transform="translate(516 342)">&lt;h5&gt;</text><text style="font-size:10px;fill:#637939" transform="translate(660 179)">&lt;h6&gt;</text><text style="font-size:70px;fill:#e7cb94" transform="translate(681 262)">&lt;p&gt;</text><text style="font-size:70px;fill:#637939" transform="rotate(90 159.5 421.5)">&lt;a&gt;</text><text style="font-size:40px;fill:#b5cf6b" transform="rotate(90 -69.5 371.5)">&lt;ul&gt;</text><text style="font-size:55px;fill:#637939" transform="translate(495 433)">&lt;li&gt;</text><text style="font-size:100px;fill:#637939" transform="rotate(90 119 329)">&lt;div&gt;</text><text style="font-size:70px;fill:#8ca252" transform="translate(247 398)">&lt;span&gt;</text><text style="font-size:55px;fill:#ce6dbd" transform="rotate(90 1.5 401.5)">&lt;img&gt;</text><text style="font-size:40px;fill:#ad494a" transform="translate(320 353)">&lt;form&gt;</text><text style="font-size:40px;fill:#d6616b" transform="rotate(90 116.5 412.5)">&lt;input&gt;</text><text style="font-size:40px;fill:#9c9ede" transform="rotate(90 85 476)">&lt;button&gt;</text><text style="font-size:40px;fill:#b5cf6b" transform="rotate(90 50.5 326.5)">color</text><text style="font-size:25px;fill:#cedb9c" transform="rotate(90 208 522)">border</text><text style="font-size:25px;fill:#e7ba52" transform="rotate(90 51.5 277.5)">margin</text><text style="font-size:25px;fill:#a55194" transform="translate(580 520)">padding</text><text style="font-size:25px;fill:#8ca252" transform="translate(709 410)">width</text><text style="font-size:25px;fill:#b5cf6b" transform="rotate(90 187 350)">height</text><text style="font-size:25px;fill:#bd9e39" transform="rotate(90 272.5 456.5)">display</text><text style="font-size:25px;fill:#8ca252" transform="rotate(90 104 244)">position</text><text style="font-size:10px;fill:#a55194" transform="translate(350 467)">top</text><text style="font-size:10px;fill:#bd9e39" transform="rotate(90 121 586)">right</text><text style="font-size:10px;fill:#ce6dbd" transform="translate(434 515)">bottom</text><text style="font-size:10px;fill:#de9ed6" transform="rotate(90 243 524)">left</text><text style="font-size:25px;fill:#393b79" transform="rotate(90 226.5 396.5)">overflow</text><text style="font-size:10px;fill:#9c9ede" transform="translate(243 136)">float</text><text style="font-size:10px;fill:#637939" transform="translate(777 373)">clear</text><text style="font-size:10px;fill:#8ca252" transform="rotate(90 258.5 524.5)">visibility</text><text style="font-size:10px;fill:#7b4173" transform="translate(383 517)">opacity</text><text style="font-size:10px;fill:#9c9ede" transform="translate(758 501)">transition</text><text style="font-size:10px;fill:#8c6d31" transform="translate(218 124)">transform</text><text style="font-size:10px;fill:#cedb9c" transform="translate(204 80)">animation</text><text style="font-size:10px;fill:#de9ed6" transform="translate(511 184)">flex</text><text style="font-size:10px;fill:#7b4173" transform="rotate(90 53 399)">grid</text><text style="font-size:10px;fill:#393b79" transform="translate(431 171)">gap</text><text style="font-size:10px;fill:#bd9e39" transform="rotate(90 19 114)">outline</text><text style="font-size:10px;fill:#e7cb94" transform="translate(183 409)">cursor</text><text style="font-size:10px;fill:#ad494a" transform="translate(752 468)">resize</text><text style="font-size:40px;fill:#a55194" transform="translate(439 504)">function</text><text style="font-size:25px;fill:#de9ed6" transform="translate(657 103)">sort()</text><text style="font-size:25px;fill:#393b79" transform="rotate(90 83 210)">trim()</text><text style="font-size:25px;fill:#5254a3" transform="rotate(90 -56 186)">background-color</text><text style="font-size:25px;fill:#6b6ecf" transform="rotate(90 48 215)">background-image</text><text style="font-size:10px;fill:#b5cf6b" transform="translate(753 96)">border-radius</text><text style="font-size:10px;fill:#e7cb94" transform="rotate(90 234 314)">font-family</text><text style="font-size:25px;fill:#cedb9c" transform="rotate(90 91 551)">font-size</text><text style="font-size:10px;fill:#ad494a" transform="translate(771 455)">font-weight</text><text style="font-size:25px;fill:#ad494a" transform="rotate(90 117.5 254.5)">text-align</text><text style="font-size:10px;fill:#d6616b" transform="translate(68 110)">text-decoration</text><text style="font-size:10px;fill:#bd9e39" transform="rotate(90 -30 509)">line-height</text><text style="font-size:10px;fill:#a55194" transform="translate(685 506)">z-index</text><text style="font-size:10px;fill:#843c39" transform="rotate(90 -139 357)">flex-direction</text><text style="font-size:10px;fill:#e7ba52" transform="rotate(90 255 546)">justify-content</text><text style="font-size:10px;fill:#e7cb94" transform="rotate(90 -113.5 422.5)">align-items</text><text style="font-size:10px;fill:#d6616b" transform="rotate(90 -171.5 261.5)">grid-template-columns</text><text style="font-size:10px;fill:#e7969c" transform="translate(835 221)">grid-template-rows</text><text style="font-size:10px;fill:#d6616b" transform="translate(484 59)">box-shadow</text><text style="font-size:10px;fill:#9c9ede" transform="rotate(90 217 592)">text-shadow</text><text style="font-size:10px;fill:#637939" transform="translate(820 233)">clip-path</text><text style="font-size:10px;fill:#e7cb94" transform="rotate(90 313 476)">object-fit</text><text style="font-size:10px;fill:#8c6d31" transform="translate(770 71)">pointer-events</text><text style="font-size:10px;fill:#bd9e39" transform="translate(851 244)">user-select</text><text style="font-size:10px;fill:#e7ba52" transform="translate(186 448)">white-space</text><text style="font-size:10px;fill:#e7cb94" transform="translate(755 514)">word-break</text><text style="font-size:10px;fill:#b5cf6b" transform="translate(779 361)">content</text><text style="font-size:10px;fill:#cedb9c" transform="rotate(90 -45.5 376.5)">quotes</text><text style="font-size:10px;fill:#5254a3" transform="translate(314 74)">list-style</text><text style="font-size:40px;fill:#637939" transform="rotate(90 -17.5 235.5)">document</text><text style="font-size:25px;fill:#e7cb94" transform="rotate(90 92 226)">window</text><text style="font-size:25px;fill:#843c39" transform="rotate(90 -99 381)">console</text><text style="font-size:10px;fill:#6b6ecf" transform="rotate(90 -100.5 368.5)">alert()</text><text style="font-size:25px;fill:#8ca252" transform="translate(733 126)">setTimeout()</text><text style="font-size:10px;fill:#b5cf6b" transform="rotate(90 147.5 649.5)">setInterval()</text><text style="font-size:10px;fill:#cedb9c" transform="translate(825 207)">clearTimeout()</text><text style="font-size:25px;fill:#bd9e39" transform="rotate(90 -175 278)">addEventListener()</text><text style="font-size:10px;fill:#e7ba52" transform="translate(851 551)">removeEventListener()</text><text style="font-size:25px;fill:#e7cb94" transform="translate(612 546)">createElement()</text><text style="font-size:25px;fill:#843c39" transform="rotate(90 -21 215)">appendChild()</text><text style="font-size:10px;fill:#ad494a" transform="translate(426 555)">removeChild()</text><text style="font-size:25px;fill:#e7969c" transform="translate(779 430)">querySelector()</text><text style="font-size:10px;fill:#7b4173" transform="translate(412 530)">querySelectorAll()</text><text style="font-size:25px;fill:#a55194" transform="rotate(90 -36 200)">getElementById()</text><text style="font-size:10px;fill:#ce6dbd" transform="translate(643 56)">getElementsByClassName()</text><text style="font-size:10px;fill:#de9ed6" transform="rotate(90 -92 178)">getElementsByTagName()</text><text style="font-size:25px;fill:#bd9e39" transform="rotate(90 228.5 361.5)">innerHTML</text><text style="font-size:10px;fill:#e7ba52" transform="rotate(90 -42 191)">textContent</text><text style="font-size:25px;fill:#e7cb94" transform="translate(516 457)">style</text><text style="font-size:25px;fill:#e7ba52" transform="rotate(90 280.5 479.5)">classList</text><text style="font-size:10px;fill:#7b4173" transform="rotate(90 102 142)">localStorage</text><text style="font-size:10px;fill:#a55194" transform="rotate(90 260.5 554.5)">sessionStorage</text><text style="font-size:10px;fill:#637939" transform="translate(848 465)">JSON.parse()</text><text style="font-size:10px;fill:#8ca252" transform="rotate(90 -152 352)">JSON.stringify()</text><text style="font-size:25px;fill:#b5cf6b" transform="translate(206 102)">fetch()</text><text style="font-size:10px;fill:#6b6ecf" transform="rotate(90 -13 195)">Promise</text><text style="font-size:10px;fill:#9c9ede" transform="rotate(90 9 272)">async</text><text style="font-size:10px;fill:#637939" transform="rotate(90 43.5 446.5)">await</text><text style="font-size:10px;fill:#8ca252" transform="translate(573 497)">try</text><text style="font-size:10px;fill:#b5cf6b" transform="rotate(90 230.5 542.5)">catch</text><text style="font-size:10px;fill:#cedb9c" transform="rotate(90 239 338)">finally</text><text style="font-size:25px;fill:#cedb9c" transform="translate(213 430)">forEach()</text><text style="font-size:25px;fill:#8c6d31" transform="rotate(90 66 529)">map()</text><text style="font-size:10px;fill:#bd9e39" transform="translate(345 63)">filter()</text><text style="font-size:10px;fill:#e7ba52" transform="rotate(90 251.5 574.5)">reduce()</text><text style="font-size:10px;fill:#e7cb94" transform="translate(83 194)">some()</text><text style="font-size:10px;fill:#843c39" transform="rotate(90 218.5 604.5)">every()</text><text style="font-size:10px;fill:#ad494a" transform="rotate(90 -160 237)">find()</text><text style="font-size:10px;fill:#d6616b" transform="translate(156 486)">findIndex()</text><text style="font-size:25px;fill:#e7969c" transform="rotate(90 198.5 314.5)">push()</text><text style="font-size:10px;fill:#7b4173" transform="rotate(90 189 580)">pop()</text><text style="font-size:10px;fill:#a55194" transform="rotate(90 279 550)">shift()</text><text style="font-size:10px;fill:#ce6dbd" transform="translate(775 85)">unshift()</text><text style="font-size:10px;fill:#de9ed6" transform="translate(687 517)">splice()</text><text style="font-size:10px;fill:#5254a3" transform="translate(762 479)">reverse()</text><text style="font-size:10px;fill:#6b6ecf" transform="translate(387 543)">Math.random()</text><text style="font-size:10px;fill:#9c9ede" transform="rotate(90 278.5 565.5)">Math.floor()</text><text style="font-size:10px;fill:#637939" transform="rotate(90 -112.5 438.5)">Math.ceil()</text><text style="font-size:10px;fill:#8ca252" transform="rotate(90 -191 268)">Math.round()</text><text style="font-size:25px;fill:#d6616b" transform="rotate(90 250.5 443.5)">Date</text><text style="font-size:10px;fill:#bd9e39" transform="translate(837 359)">RegExp</text><text style="font-size:10px;fill:#e7cb94" transform="rotate(90 -32.5 120.5)">test()</text><text style="font-size:10px;fill:#843c39" transform="rotate(90 234 552)">exec()</text><text style="font-size:10px;fill:#ad494a" transform="translate(174 461)">match()</text><text style="font-size:10px;fill:#d6616b" transform="rotate(90 321.5 483.5)">replace()</text><text style="font-size:10px;fill:#e7969c" transform="translate(325 51)">split()</text><text style="font-size:10px;fill:#7b4173" transform="rotate(90 283 574)">join()</text><text style="font-size:10px;fill:#a55194" transform="translate(843 151)">charAt()</text><text style="font-size:10px;fill:#ce6dbd" transform="translate(82 99)">charCodeAt()</text><text style="font-size:10px;fill:#393b79" transform="translate(850 494)">toUpperCase()</text><text style="font-size:10px;fill:#5254a3" transform="rotate(90 -134 405)">toLowerCase()</text><text style="font-size:10px;fill:#6b6ecf" transform="rotate(90 381 494)">includes()</text><text style="font-size:10px;fill:#8ca252" transform="rotate(90 -173 343)">indexOf()</text><text style="font-size:10px;fill:#cedb9c" transform="translate(751 526)">isNaN()</text><text style="font-size:10px;fill:#8c6d31" transform="translate(670 558)">isFinite()</text><text style="font-size:10px;fill:#cedb9c" transform="rotate(90 78.5 202.5)">Number</text><text style="font-size:10px;fill:#bd9e39" transform="translate(500 48)">parseInt()</text><text style="font-size:10px;fill:#e7ba52" transform="rotate(90 60 99)">parseFloat()</text><text style="font-size:10px;fill:#7b4173" transform="translate(696 274)">Array</text><text style="font-size:10px;fill:#bd9e39" transform="translate(705 147)">Object</text><text style="font-size:10px;fill:#843c39" transform="translate(145 499)">typeof</text><text style="font-size:10px;fill:#ad494a" transform="translate(833 99)">instanceof</text><text style="font-size:40px;fill:#e7969c" transform="translate(295 318)">echo</text><text style="font-size:10px;fill:#7b4173" transform="rotate(90 111 656)">print</text><text style="font-size:10px;fill:#a55194" transform="rotate(90 -134 425)">include</text><text style="font-size:10px;fill:#ce6dbd" transform="rotate(90 227.5 613.5)">require</text><text style="font-size:25px;fill:#5254a3" transform="rotate(90 -43.5 385.5)">else</text><text style="font-size:10px;fill:#6b6ecf" transform="translate(828 478)">elseif</text><text style="font-size:10px;fill:#9c9ede" transform="translate(201 115)">switch</text><text style="font-size:10px;fill:#637939" transform="rotate(90 153.5 416.5)">case</text><text style="font-size:25px;fill:#ce6dbd" transform="translate(666 79)">foreach</text><text style="font-size:10px;fill:#e7ba52" transform="rotate(90 -36.5 427.5)">break</text><text style="font-size:10px;fill:#b5cf6b" transform="translate(733 558)">continue</text><text style="font-size:25px;fill:#cedb9c" transform="rotate(90 -78 186)">return</text><text style="font-size:25px;fill:#e7cb94" transform="rotate(90 -120.5 366.5)">isset()</text><text style="font-size:10px;fill:#843c39" transform="rotate(90 -142.5 213.5)">unset()</text><text style="font-size:10px;fill:#ad494a" transform="rotate(90 132.5 260.5)">empty()</text><text style="font-size:10px;fill:#d6616b" transform="translate(505 524)">die()</text><text style="font-size:10px;fill:#e7969c" transform="translate(162 474)">exit()</text><text style="font-size:25px;fill:#7b4173" transform="rotate(90 -31.5 134.5)">array()</text><text style="font-size:25px;fill:#a55194" transform="rotate(90 170 253)">count()</text><text style="font-size:25px;fill:#ce6dbd" transform="rotate(90 44 309)">&lt;article&gt;</text><text style="font-size:25px;fill:#de9ed6" transform="rotate(90 84.5 337.5)">&lt;aside&gt;</text><text style="font-size:25px;fill:#393b79" transform="translate(678 388)">&lt;main&gt;</text><text style="font-size:25px;fill:#5254a3" transform="rotate(90 -36.5 404.5)">&lt;body&gt;</text><text style="font-size:25px;fill:#6b6ecf" transform="translate(490 379)">&lt;head&gt;</text><text style="font-size:25px;fill:#9c9ede" transform="rotate(90 175.5 496.5)">&lt;title&gt;</text><text style="font-size:25px;fill:#637939" transform="rotate(90 113 482)">&lt;table&gt;</text><text style="font-size:25px;fill:#8ca252" transform="rotate(90 18.5 291.5)">&lt;tr&gt;</text><text style="font-size:25px;fill:#b5cf6b" transform="rotate(90 48 246)">&lt;td&gt;</text><text style="font-size:25px;fill:#cedb9c" transform="rotate(90 .5 454.5)">&lt;th&gt;</text><text style="font-size:25px;fill:#8c6d31" transform="rotate(90 91 527)">&lt;script&gt;</text><text style="font-size:25px;fill:#bd9e39" transform="rotate(90 161 487)">&lt;link&gt;</text><text style="font-size:25px;fill:#e7ba52" transform="translate(480 238)">&lt;meta&gt;</text><text style="font-size:25px;fill:#e7cb94" transform="rotate(90 115 290)">&lt;style&gt;</text><text style="font-size:10px;fill:#843c39" transform="translate(372 397)">&lt;nav&gt;</text><text style="font-size:10px;fill:#ad494a" transform="rotate(90 139 417)">&lt;section&gt;</text><text style="font-size:10px;fill:#d6616b" transform="rotate(90 42 270)">&lt;thead&gt;</text><text style="font-size:10px;fill:#e7969c" transform="translate(467 300)">&lt;tbody&gt;</text><text style="font-size:10px;fill:#7b4173" transform="translate(739 368)">&lt;tfoot&gt;</text><text style="font-size:10px;fill:#a55194" transform="translate(544 468)">&lt;br&gt;</text><text style="font-size:10px;fill:#ce6dbd" transform="rotate(90 154.5 441.5)">&lt;hr&gt;</text><text style="font-size:10px;fill:#de9ed6" transform="rotate(90 125 386)">&lt;strong&gt;</text><text style="font-size:10px;fill:#393b79" transform="rotate(90 31 510)">&lt;em&gt;</text><text style="font-size:10px;fill:#5254a3" transform="rotate(90 24 418)">&lt;b&gt;</text><text style="font-size:10px;fill:#6b6ecf" transform="translate(499 270)">&lt;i&gt;</text><text style="font-size:10px;fill:#9c9ede" transform="rotate(90 109.5 554.5)">&lt;u&gt;</text><text style="font-size:10px;fill:#637939" transform="rotate(90 14.5 278.5)">&lt;small&gt;</text><text style="font-size:10px;fill:#8ca252" transform="translate(504 354)">&lt;mark&gt;</text><text style="font-size:10px;fill:#b5cf6b" transform="rotate(90 259 488)">&lt;cite&gt;</text><text style="font-size:10px;fill:#cedb9c" transform="translate(776 443)">&lt;blockquote&gt;</text><text style="font-size:10px;fill:#8c6d31" transform="translate(656 218)">&lt;code&gt;</text><text style="font-size:10px;fill:#bd9e39" transform="translate(511 330)">&lt;pre&gt;</text><text style="font-size:10px;fill:#e7ba52" transform="rotate(90 114 563)">&lt;sup&gt;</text><text style="font-size:10px;fill:#e7cb94" transform="rotate(90 73 467)">&lt;sub&gt;</text><text style="font-size:10px;fill:#843c39" transform="rotate(90 49 389)">&lt;figure&gt;</text><text style="font-size:10px;fill:#ad494a" transform="rotate(90 -119 350)">&lt;figcaption&gt;</text><text style="font-size:10px;fill:#d6616b" transform="translate(471 183)">&lt;audio&gt;</text><text style="font-size:10px;fill:#e7969c" transform="translate(400 359)">&lt;video&gt;</text><text style="font-size:10px;fill:#7b4173" transform="translate(509 475)">&lt;source&gt;</text><text style="font-size:10px;fill:#a55194" transform="rotate(90 21.5 229.5)">&lt;track&gt;</text><text style="font-size:10px;fill:#ce6dbd" transform="translate(424 382)">&lt;canvas&gt;</text><text style="font-size:10px;fill:#de9ed6" transform="translate(467 193)">&lt;svg&gt;</text><text style="font-size:10px;fill:#393b79" transform="rotate(90 -16.5 262.5)">&lt;path&gt;</text><text style="font-size:10px;fill:#5254a3" transform="rotate(90 -150.5 281.5)">&lt;circle&gt;</text><text style="font-size:10px;fill:#6b6ecf" transform="translate(423 314)">&lt;rect&gt;</text><text style="font-size:10px;fill:#9c9ede" transform="rotate(90 -79 408)">&lt;polygon&gt;</text><text style="font-size:10px;fill:#637939" transform="rotate(90 216.5 539.5)">&lt;line&gt;</text><text style="font-size:10px;fill:#8ca252" transform="rotate(90 103 564)">&lt;g&gt;</text><text style="font-size:10px;fill:#b5cf6b" transform="rotate(90 -6 447)">&lt;symbol&gt;</text><text style="font-size:10px;fill:#cedb9c" transform="rotate(90 171.5 520.5)">&lt;use&gt;</text><text style="font-size:10px;fill:#8c6d31" transform="translate(658 166)">&lt;defs&gt;</text><text style="font-size:10px;fill:#bd9e39" transform="translate(776 348)">&lt;animate&gt;</text><text style="font-size:10px;fill:#e7ba52" transform="translate(711 444)">&lt;iframe&gt;</text><text style="font-size:10px;fill:#e7cb94" transform="rotate(90 149 257)">&lt;embed&gt;</text><text style="font-size:10px;fill:#843c39" transform="rotate(90 108.5 579.5)">&lt;object&gt;</text><text style="font-size:10px;fill:#ad494a" transform="translate(231 154)">&lt;param&gt;</text><text style="font-size:10px;fill:#d6616b" transform="rotate(90 208 405)">&lt;map&gt;</text><text style="font-size:10px;fill:#e7969c" transform="rotate(90 -4 397)">&lt;area&gt;</text><text style="font-size:10px;fill:#7b4173" transform="translate(228 145)">&lt;base&gt;</text><text style="font-size:10px;fill:#a55194" transform="translate(517 312)">&lt;bdi&gt;</text><text style="font-size:10px;fill:#ce6dbd" transform="translate(365 365)">&lt;bdo&gt;</text><text style="font-size:10px;fill:#de9ed6" transform="rotate(90 265 410)">&lt;data&gt;</text><text style="font-size:10px;fill:#393b79" transform="rotate(90 235 329)">&lt;datalist&gt;</text><text style="font-size:10px;fill:#5254a3" transform="rotate(90 220.5 314.5)">&lt;dialog&gt;</text><text style="font-size:10px;fill:#6b6ecf" transform="rotate(90 165.5 231.5)">&lt;details&gt;</text><text style="font-size:10px;fill:#9c9ede" transform="translate(742 105)">&lt;summary&gt;</text><text style="font-size:10px;fill:#637939" transform="translate(602 559)">in_array()</text><text style="font-size:10px;fill:#8ca252" transform="rotate(90 257 608)">array_push()</text><text style="font-size:10px;fill:#b5cf6b" transform="rotate(90 -111 184)">array_pop()</text><text style="font-size:10px;fill:#cedb9c" transform="rotate(90 295.5 586.5)">array_merge()</text><text style="font-size:10px;fill:#8c6d31" transform="rotate(90 -178.5 362.5)">array_slice()</text><text style="font-size:10px;fill:#bd9e39" transform="translate(724 570)">array_keys()</text><text style="font-size:10px;fill:#e7ba52" transform="translate(51 532)">array_values()</text><text style="font-size:10px;fill:#843c39" transform="translate(56 253)">rsort()</text><text style="font-size:10px;fill:#ad494a" transform="translate(68 182)">asort()</text><text style="font-size:10px;fill:#d6616b" transform="rotate(90 123 164)">ksort()</text><text style="font-size:10px;fill:#e7969c" transform="translate(835 510)">implode()</text><text style="font-size:10px;fill:#7b4173" transform="rotate(90 -164.5 393.5)">explode()</text><text style="font-size:10px;fill:#a55194" transform="translate(769 59)">preg_match()</text><text style="font-size:10px;fill:#ce6dbd" transform="translate(858 450)">preg_replace()</text><text style="font-size:10px;fill:#de9ed6" transform="translate(858 168)">str_replace()</text><text style="font-size:10px;fill:#e7cb94" transform="rotate(90 -200 261)">array_key_exists()</text></svg>