<svg xmlns="http://www.w3.org/2000/svg" xml:space="preserve" style="enable-background:new 0 0 100 100" viewBox="0 0 100 100"><path d="M88.724 55.548c.3-.616.566-1.264.796-1.943 2.633-7.77-1.349-17.078-9.733-19.325-.906-11.384-8.906-19.193-17.941-20.526C51.505 12.23 42.032 18.799 38.88 29.24c-3.799-1.346-7.501-1.182-10.99.857-1.583.732-3.031 1.812-4.33 3.233-1.907 2.086-3.147 4.719-3.652 7.495-.748.118-1.483.236-2.176.484-4.04 1.449-6.589 4.431-7.288 8.923-.435 2.797.443 5.587.933 6.714 1.935 4.455 6.422 6.98 10.981 6.312.227-.033.557.069.752.233.241 7.12 3.698 13.417 8.884 17.014 8.321 5.772 19.027 3.994 25.781-3.921 2.894 2.96 6.338 4.398 10.384 3.876 4.023-.519 7.147-2.739 9.426-6.349 1.053.283 2.051.691 3.083.804 4.042.442 7.324-1.165 9.732-4.8.922-1.391 1.793-3.194 1.793-6.354.001-3.256-1.292-6.223-3.469-8.213z" style="fill:#c7ede6"/><path d="M18.389 47.584H8.359a.5.5 0 0 1 0-1h10.03a.5.5 0 0 1 0 1zm2.881 0h-1.445a.5.5 0 0 1 0-1h1.445a.5.5 0 0 1 0 1zm4.055 0h-2.546a.5.5 0 0 1 0-1h2.546a.5.5 0 0 1 0 1zm0 1.865h-9.616a.5.5 0 0 1 0-1h9.616a.5.5 0 0 1 0 1zm-11.348 0h-.58a.5.5 0 0 1 0-1h.58a.5.5 0 0 1 0 1zm-2.377 0h-1.456a.5.5 0 0 1 0-1H11.6a.5.5 0 0 1 0 1zm9.136-3.73h-5.027a.5.5 0 0 1 0-1h5.027a.5.5 0 0 1 0 1zm0-1.865h-1.257a.5.5 0 0 1 0-1h1.257a.5.5 0 0 1 0 1zm-3.269 7.46h-1.759a.5.5 0 0 1 0-1h1.759a.5.5 0 0 1 0 1zm56.948-26.051h-10.03a.5.5 0 0 1 0-1h10.03a.5.5 0 0 1 0 1zm2.882 0H75.85a.5.5 0 0 1 0-1h1.446a.5.5 0 0 1 .001 1zm4.054 0h-2.546a.5.5 0 0 1 0-1h2.546a.5.5 0 0 1 0 1zm0 1.865h-9.617a.5.5 0 0 1 0-1h9.617a.5.5 0 0 1 0 1zm-11.348 0h-.58a.5.5 0 0 1 0-1h.58a.5.5 0 0 1 0 1zm-2.377 0H66.17a.5.5 0 0 1 0-1h1.456a.5.5 0 0 1 0 1zm9.136-3.729h-5.028a.5.5 0 0 1 0-1h5.028a.5.5 0 0 1 0 1zm0-1.865h-1.258a.5.5 0 0 1 0-1h1.258a.5.5 0 0 1 0 1zm-3.269 7.459h-1.759a.5.5 0 0 1 0-1h1.759a.5.5 0 0 1 0 1z" style="fill:#fff"/><path d="M74.084 59.257h10.681a4.438 4.438 0 0 0 .912-8.783c.023-.187.039-.377.039-.57a4.598 4.598 0 0 0-4.597-4.598 4.586 4.586 0 0 0-3.666 1.831 5.072 5.072 0 0 0-10.037-.573 5.167 5.167 0 0 0 .013 1.977 3.156 3.156 0 0 0-2.322-1.016 3.168 3.168 0 0 0-3.16 2.961 4.26 4.26 0 0 0-2.467.17c-1.671.627-2.861 2.2-2.93 3.983a4.439 4.439 0 0 0 4.435 4.617h10.233" style="fill:#fdfcef"/><path d="M84.764 59.757h-10.68a.5.5 0 0 1 0-1h10.681a3.944 3.944 0 0 0 3.939-3.939 3.952 3.952 0 0 0-3.13-3.854.5.5 0 0 1-.394-.552c.021-.167.035-.336.035-.508a4.102 4.102 0 0 0-4.097-4.098 4.065 4.065 0 0 0-3.267 1.633.5.5 0 0 1-.898-.263 4.572 4.572 0 1 0-9.035 1.267.5.5 0 0 1-.857.44 2.645 2.645 0 0 0-1.956-.856 2.674 2.674 0 0 0-2.66 2.494.502.502 0 0 1-.607.456 3.749 3.749 0 0 0-2.184.149c-1.498.562-2.546 1.983-2.605 3.535a3.907 3.907 0 0 0 1.097 2.889 3.907 3.907 0 0 0 2.839 1.209h10.232a.5.5 0 0 1 0 1H60.985a4.897 4.897 0 0 1-3.56-1.516 4.902 4.902 0 0 1-1.376-3.621c.076-1.948 1.384-3.729 3.254-4.432a4.8 4.8 0 0 1 2.222-.279 3.678 3.678 0 0 1 3.581-2.885c.604 0 1.194.151 1.721.432.004-.327.036-.655.098-.983.436-2.347 2.399-4.188 4.774-4.478a5.537 5.537 0 0 1 4.226 1.216 5.607 5.607 0 0 1 1.847 2.851 5.041 5.041 0 0 1 3.348-1.256 5.103 5.103 0 0 1 5.097 5.098c0 .064-.002.128-.004.192a4.96 4.96 0 0 1 3.492 4.722 4.946 4.946 0 0 1-4.941 4.937z" style="fill:#472b29"/><path d="M86.562 50.994c-1.543-.727-3.327-.213-3.985 1.15a2.408 2.408 0 0 0-.182.521" style="fill:#fdfcef"/><path d="M82.394 52.915a.25.25 0 0 1-.244-.306 2.71 2.71 0 0 1 .201-.573c.717-1.484 2.653-2.051 4.317-1.269a.25.25 0 0 1 .12.333.253.253 0 0 1-.333.12c-1.418-.671-3.057-.205-3.653 1.032-.073.15-.128.308-.164.468a.252.252 0 0 1-.244.195z" style="fill:#472b29"/><path d="M75.076 64.611V36.433c0-2.403-1.605-4.369-3.568-4.369H31.074c-1.962 0-3.568 1.966-3.568 4.369v28.178" style="fill:#fdfcee"/><path d="M75.076 65.311a.7.7 0 0 1-.7-.7V36.433c0-2.023-1.286-3.669-2.867-3.669H31.074c-1.581 0-2.867 1.646-2.867 3.669v28.178a.7.7 0 1 1-1.4 0V36.433c0-2.795 1.914-5.069 4.268-5.069H71.51c2.354 0 4.268 2.274 4.268 5.069v28.178a.702.702 0 0 1-.702.7z" style="fill:#472b29"/><path d="M72.572 39.342v22.766H30.636V36.445h41.936v2.897z" style="fill:#c0e5e4"/><path d="M25.003 64.611v1.878c0 1.721 1.774 3.13 3.943 3.13h44.69c2.169 0 3.943-1.408 3.943-3.13v-1.878H25.003z" style="fill:#cdcbbd"/><path d="M73.636 70.319h-44.69c-2.561 0-4.644-1.719-4.644-3.83v-1.878a.7.7 0 0 1 .7-.7H77.58a.7.7 0 0 1 .7.7v1.878c0 2.111-2.083 3.83-4.644 3.83zm-47.933-5.008v1.178c0 1.317 1.485 2.43 3.243 2.43h44.69c1.758 0 3.243-1.112 3.243-2.43v-1.178H25.703zm25.901-30.744h-1.252a.314.314 0 0 1-.313-.313c0-.172.141-.313.313-.313h1.252a.313.313 0 0 1 0 .626z" style="fill:#472b29"/><path d="M53.482 67.741H49.1a.314.314 0 0 1-.313-.313c0-.172.141-.313.313-.313h4.381a.313.313 0 0 1 .001.626zm18.777-5.597H30.323a.35.35 0 0 1-.35-.35V59.29a.35.35 0 1 1 .7 0v2.154H71.91V39.261a.35.35 0 1 1 .7 0v22.533a.35.35 0 0 1-.351.35zm-41.936-8.763a.35.35 0 0 1-.35-.35V36.132a.35.35 0 0 1 .35-.35H72.26a.35.35 0 1 1 0 .7H30.673v16.55a.35.35 0 0 1-.35.349zm0 4.382a.35.35 0 0 1-.35-.35V54.91a.35.35 0 1 1 .7 0v2.504a.35.35 0 0 1-.35.349z" style="fill:#472b29"/><path d="M35.912 71.358h3.215c1.916 0 3.469-1.52 3.469-3.396 0-1.636-1.182-3.001-2.756-3.323.018-.143.031-.288.031-.436 0-1.942-1.609-3.517-3.593-3.517a3.608 3.608 0 0 0-2.865 1.401c-.168-2.162-2.141-3.83-4.45-3.554-1.688.202-3.084 1.479-3.395 3.116a3.86 3.86 0 0 0 .01 1.512 2.494 2.494 0 0 0-1.814-.777c-1.313 0-2.385 1.001-2.47 2.265a3.398 3.398 0 0 0-1.928.13c-1.306.48-2.236 1.683-2.29 3.047-.077 1.937 1.504 3.532 3.467 3.532H28.541m1.489 0h.327" style="fill:#fdfcef"/><path d="M39.127 71.858h-3.215a.5.5 0 0 1 0-1h3.215c1.638 0 2.97-1.299 2.97-2.896 0-1.362-.991-2.554-2.357-2.833a.502.502 0 0 1-.396-.555c.016-.121.027-.245.027-.371 0-1.663-1.388-3.017-3.094-3.017-.978 0-1.878.439-2.47 1.206a.498.498 0 0 1-.893-.267 3.328 3.328 0 0 0-1.227-2.331 3.512 3.512 0 0 0-2.665-.765c-1.476.177-2.694 1.292-2.964 2.712-.084.443-.081.887.009 1.317a.5.5 0 0 1-.852.447 1.985 1.985 0 0 0-1.452-.622c-1.038 0-1.904.79-1.971 1.798a.502.502 0 0 1-.604.455 2.902 2.902 0 0 0-1.651.112c-1.128.414-1.917 1.458-1.962 2.598a2.84 2.84 0 0 0 .8 2.095 2.974 2.974 0 0 0 2.167.916h7.998a.5.5 0 0 1 0 1h-7.998a4.02 4.02 0 0 1-2.889-1.224 3.828 3.828 0 0 1-1.078-2.827c.062-1.539 1.114-2.944 2.617-3.497a3.87 3.87 0 0 1 1.689-.229c.331-1.268 1.506-2.197 2.882-2.197.431 0 .854.094 1.24.269.011-.199.034-.398.072-.597.35-1.844 1.924-3.291 3.827-3.519a4.49 4.49 0 0 1 3.419.983 4.352 4.352 0 0 1 1.398 2.048 4.098 4.098 0 0 1 2.557-.882c2.257 0 4.094 1.802 4.094 4.017l-.001.06c1.604.52 2.727 2.012 2.727 3.699 0 2.15-1.781 3.897-3.969 3.897zm-8.77 0h-.327a.5.5 0 0 1 0-1h.327a.5.5 0 0 1 0 1z" style="fill:#472b29"/><path d="M37.576 66.566a.25.25 0 0 1-.244-.307c.035-.152.087-.3.155-.438.555-1.122 2.084-1.539 3.409-.925a.25.25 0 1 1-.209.453c-1.08-.496-2.315-.188-2.751.692a1.516 1.516 0 0 0-.118.331.247.247 0 0 1-.242.194zm-4.684 5.292h-1.006a.5.5 0 0 1 0-1h1.006a.5.5 0 0 1 0 1z" style="fill:#472b29"/><path d="M34.373 57.396a.994.994 0 0 1-1.004-.983V42.1c0-.542.45-.983 1.004-.983h7.254a.994.994 0 0 1 1.004.983v14.312c0 .542-.45.983-1.004.983l-7.254.001z" style="fill:#fefdef"/><path d="M34.842 43.59h6.316v11.333h-6.316V43.59z" style="fill:#c5def0"/><path d="M69.611 55.634c0 .972-.852 1.761-1.899 1.761H47.288c-1.048 0-1.899-.79-1.899-1.761V42.878c0-.972.852-1.761 1.899-1.761h20.423c1.048 0 1.899.79 1.899 1.761l.001 12.756z" style="fill:#e1e0d8"/><path d="M48.611 55.438V43.074h17.222v12.364H48.611z" style="fill:#c5def0"/><path d="M66.111 43.074v12.364c0 .142-.124.258-.278.258h-2.361c-.153 0-.278-.115-.278-.258 0-.142.124-.258.278-.258h2.083V43.332H48.889V55.18h9.977c.153 0 .278.115.278.258 0 .142-.124.258-.278.258H48.611c-.153 0-.278-.115-.278-.258V43.074c0-.142.124-.258.278-.258h17.222c.154.001.278.116.278.258z" style="fill:#472b29"/><path d="M62.477 55.438c0 .142-.124.258-.278.258h-1.944c-.153 0-.278-.115-.278-.258 0-.142.124-.258.278-.258h1.944c.153.001.278.116.278.258z" style="fill:#472b29"/><circle cx="67.5" cy="49.256" r=".5" style="fill:#472b29"/><path d="M41 55.006h-6a.25.25 0 0 1-.25-.25v-11a.25.25 0 0 1 .25-.25h6a.25.25 0 0 1 .25.25v11a.25.25 0 0 1-.25.25zm-5.75-.5h5.5v-10.5h-5.5v10.5z" style="fill:#472b29"/><path d="M41.5 57.506h-7c-.689 0-1.25-.561-1.25-1.25v-14c0-.689.561-1.25 1.25-1.25h7c.689 0 1.25.561 1.25 1.25v14c0 .69-.561 1.25-1.25 1.25zm-7-16a.75.75 0 0 0-.75.75v14c0 .413.336.75.75.75h7a.75.75 0 0 0 .75-.75v-14a.75.75 0 0 0-.75-.75h-7z" style="fill:#472b29"/><path d="M39 42.881h-2a.25.25 0 0 1 0-.5h2a.25.25 0 0 1 0 .5zM46.875 50.756a.25.25 0 0 1-.25-.25v-2a.25.25 0 0 1 .5 0v2a.25.25 0 0 1-.25.25z" style="fill:#472b29"/><path d="M67.5 57.506h-20a2.253 2.253 0 0 1-2.25-2.25v-12c0-1.24 1.009-2.25 2.25-2.25h20c1.241 0 2.25 1.01 2.25 2.25v12a2.252 2.252 0 0 1-2.25 2.25zm-20-16c-.965 0-1.75.785-1.75 1.75v12c0 .965.785 1.75 1.75 1.75h20c.965 0 1.75-.785 1.75-1.75v-12c0-.965-.785-1.75-1.75-1.75h-20z" style="fill:#472b29"/></svg>