<svg xmlns="http://www.w3.org/2000/svg" width="500" height="500" viewBox="0 0 255.99 255.99"><g fill="none" stroke-miterlimit="10" font-family="none" font-size="none" font-weight="none" style="mix-blend-mode:normal" text-anchor="none"><path fill="#c7ede6" d="M223.232 145.152c2.816-5.632 4.608-11.776 4.608-18.432 0-16.896-10.752-31.488-25.6-37.12 0-29.696-24.064-53.76-53.76-53.76-25.088 0-46.08 17.152-51.968 40.448-3.84-1.28-7.68-2.048-12.032-2.048-19.712 0-35.84 14.848-38.144 34.048-13.312 2.816-23.296 14.592-23.296 28.672 0 16.384 13.056 29.44 29.44 29.44h1.28v1.28c0 28.928 23.552 52.48 52.48 52.48 16.384 0 31.232-7.68 40.704-19.456 5.632 5.632 13.312 9.216 22.016 9.216 12.032 0 22.272-6.912 27.392-16.64 2.816.768 5.632 1.28 8.448 1.28a28.079 28.079 0 0 0 28.16-28.16c0-8.448-3.84-16.128-9.728-21.248z"/><path fill="#fdfcef" d="M204.544 154.88h15.616c6.4 0 11.52-5.12 11.52-11.52 0-5.888-4.608-10.752-10.496-11.52 0-.512.256-1.024.256-1.28 0-6.4-5.12-11.52-11.52-11.52-3.584 0-6.912 1.792-8.96 4.352-.256-6.656-5.888-12.032-12.8-12.032-7.168 0-12.8 5.632-12.8 12.8 0 1.024.256 2.304.512 3.328-1.792-2.048-4.096-3.328-6.912-3.328-4.608 0-8.192 3.328-8.96 7.936-.512 0-1.024-.256-1.28-.256-6.4 0-11.52 5.12-11.52 11.52 0 6.4 5.12 11.52 11.52 11.52h38.144v1.28h7.68z"/><path fill="#472b29" d="M188.16 110.08c-7.68 0-14.08 6.4-14.08 14.08-1.536-1.024-3.328-1.28-5.12-1.28-4.608 0-8.704 3.328-9.984 7.68h-.256c-7.168 0-12.8 5.632-12.8 12.8 0 7.168 5.632 12.8 12.8 12.8h38.144c.768 0 1.28-.512 1.28-1.28s-.512-1.28-1.28-1.28H158.72c-5.632 0-10.24-4.608-10.24-10.24 0-5.632 4.608-10.24 10.24-10.24H160c.512 0 1.28-.512 1.28-1.024.512-3.84 3.84-6.656 7.68-6.656 2.304 0 4.352 1.024 5.888 2.816.256.256.512.512 1.024.512.256 0 .512 0 .512-.256.512-.256.768-.768.768-1.536-.256-1.024-.512-2.048-.512-3.072 0-6.4 5.12-11.52 11.52-11.52 6.144 0 11.008 4.864 11.52 11.008 0 .512.512 1.024.768 1.28h.512c.512 0 .768-.256 1.024-.512 2.048-2.56 4.864-3.84 7.936-3.84 5.632 0 10.24 4.608 10.24 10.24v1.024c0 .256 0 .768.256 1.024s.512.512.768.512c5.376.512 9.216 4.864 9.216 10.24 0 5.632-4.608 10.24-10.24 10.24h-15.616c-.768 0-1.28.512-1.28 1.28s.512 1.28 1.28 1.28h15.616c7.168 0 12.8-5.632 12.8-12.8 0-6.144-4.352-11.264-10.24-12.544v-.256c0-7.168-5.632-12.8-12.8-12.8-3.072 0-5.888 1.024-8.192 3.072-1.536-6.144-6.912-10.752-13.568-10.752z"/><path fill="#472b29" d="M184.32 128c-3.584 0-6.656 2.56-7.424 5.888-1.024-.512-2.048-.768-3.072-.768-3.072 0-5.632 2.304-6.144 5.376-.512 0-1.024-.256-1.536-.256-3.84 0-7.168 3.072-7.424 6.912 0 .256.256.768.512.768s.512-.256.512-.512c.256-3.328 3.072-5.888 6.144-5.888.512 0 1.28 0 1.792.256h.256c.256 0 .256 0 .512-.256.256 0 .256-.256.256-.512 0-2.56 2.048-4.864 4.864-4.864 1.024 0 2.304.512 3.072 1.28 0 0 .256.256.512.256h.256c.256 0 .256-.256.512-.512.256-3.328 3.072-5.888 6.4-5.888.512 0 1.024 0 1.792.256h.256c.256 0 .512-.256.512-.512s0-.768-.512-.768c-.768-.256-1.28-.256-2.048-.256zm35.584 3.84c-3.328 0-6.4 2.304-7.424 5.632 0 .256 0 .768.512.768h.256c.256 0 .512-.256.512-.512.768-2.816 3.328-4.608 6.144-4.608h.768c.256 0 .512-.256.512-.512s-.256-.768-.512-.768h-.768z"/><path fill="#fff" d="M39.424 130.56H14.08c-.768 0-1.28-.512-1.28-1.28s.512-1.28 1.28-1.28h25.344c.768 0 1.28.512 1.28 1.28s-.512 1.28-1.28 1.28zm7.936 0H44.8c-.768 0-1.28-.512-1.28-1.28s.512-1.28 1.28-1.28h2.56c.768 0 1.28.512 1.28 1.28s-.512 1.28-1.28 1.28zm12.8 5.12H37.12c-.768 0-1.28-.512-1.28-1.28s.512-1.28 1.28-1.28h23.04c.768 0 1.28.512 1.28 1.28s-.512 1.28-1.28 1.28zm-28.16 0h-2.56c-.768 0-1.28-.512-1.28-1.28s.512-1.28 1.28-1.28H32c.768 0 1.28.512 1.28 1.28s-.512 1.28-1.28 1.28zm-7.68 0H19.2c-.768 0-1.28-.512-1.28-1.28s.512-1.28 1.28-1.28h5.12c.768 0 1.28.512 1.28 1.28s-.512 1.28-1.28 1.28zm15.36 5.12h-5.12c-.768 0-1.28-.512-1.28-1.28s.512-1.28 1.28-1.28h5.12c.768 0 1.28.512 1.28 1.28s-.512 1.28-1.28 1.28zm7.68-23.04H44.8c-.768 0-1.28.512-1.28 1.28s.512 1.28 1.28 1.28h2.56c.768 0 1.28-.512 1.28-1.28s-.512-1.28-1.28-1.28zm0 5.12h-12.8c-.768 0-1.28.512-1.28 1.28s.512 1.28 1.28 1.28h12.8c.768 0 1.28-.512 1.28-1.28s-.512-1.28-1.28-1.28zm12.8 5.12h-7.68c-.768 0-1.28.512-1.28 1.28s.512 1.28 1.28 1.28h7.68c.768 0 1.28-.512 1.28-1.28s-.512-1.28-1.28-1.28zM185.6 61.44H160c-.768 0-1.28-.512-1.28-1.28s.512-1.28 1.28-1.28h25.6c.768 0 1.28.512 1.28 1.28s-.512 1.28-1.28 1.28zm10.24 0h-5.12c-.768 0-1.28-.512-1.28-1.28s.512-1.28 1.28-1.28h5.12c.768 0 1.28.512 1.28 1.28s-.512 1.28-1.28 1.28zm12.8 5.12h-25.6c-.768 0-1.28-.512-1.28-1.28s.512-1.28 1.28-1.28h25.6c.768 0 1.28.512 1.28 1.28s-.512 1.28-1.28 1.28zm-30.72 0h-2.56c-.768 0-1.28-.512-1.28-1.28s.512-1.28 1.28-1.28h2.56c.768 0 1.28.512 1.28 1.28s-.512 1.28-1.28 1.28zm-7.936 0h-4.864c-.768 0-1.28-.512-1.28-1.28s.512-1.28 1.28-1.28h4.864c.768 0 1.28.512 1.28 1.28s-.512 1.28-1.28 1.28zm23.296-10.24h-12.8c-.768 0-1.28-.512-1.28-1.28s.512-1.28 1.28-1.28h12.8c.768 0 1.28.512 1.28 1.28s-.512 1.28-1.28 1.28zm-7.68 15.36h-5.12c-.768 0-1.28-.512-1.28-1.28s.512-1.28 1.28-1.28h5.12c.768 0 1.28.512 1.28 1.28s-.512 1.28-1.28 1.28z"/><path fill="#4792dd" d="M94.72 182.528c-10.24 0-18.688-8.448-18.688-18.688V92.16c0-10.24 8.448-18.688 18.688-18.688h71.68c10.24 0 18.688 8.448 18.688 18.688v71.68c0 10.24-8.448 18.688-18.688 18.688z"/><path fill="#472b29" d="M166.4 75.264c9.216 0 16.896 7.68 16.896 16.896v71.68c0 9.216-7.68 16.896-16.896 16.896H94.72c-9.216 0-16.896-7.68-16.896-16.896V92.16c0-9.216 7.68-16.896 16.896-16.896h71.68m0-3.584H94.72c-11.264 0-20.48 9.216-20.48 20.48v71.68c0 11.264 9.216 20.48 20.48 20.48h71.68c11.264 0 20.48-9.216 20.48-20.48V92.16c0-11.264-9.216-20.48-20.48-20.48z"/><path fill="#472b29" d="M175.104 121.6c-.768 0-1.28-.512-1.28-1.28v-9.472c0-.768.512-1.28 1.28-1.28s1.28.512 1.28 1.28v9.472c0 .768-.512 1.28-1.28 1.28zM175.36 105.216c-.768 0-1.28-.512-1.28-1.28v-4.864c0-.768.512-1.28 1.28-1.28s1.28.512 1.28 1.28v4.864c0 .512-.512 1.28-1.28 1.28z"/><path fill="#472b29" d="M164.608 173.824h-67.84a12.018 12.018 0 0 1-12.032-12.032v-67.84A12.018 12.018 0 0 1 96.768 81.92h61.44c.768 0 1.28.512 1.28 1.28s-.768 1.28-1.28 1.28h-61.44c-5.376 0-9.472 4.352-9.472 9.472v67.584c0 5.376 4.352 9.472 9.472 9.472h67.584c5.376 0 9.472-4.352 9.472-9.472v-34.56c0-.768.512-1.28 1.28-1.28s1.28.512 1.28 1.28v34.816c.256 6.656-5.12 12.032-11.776 12.032z"/><path fill="#fdfcee" d="M136.192 149.248c0 2.304 2.304 3.584 7.424 3.584v4.608h-26.112v-4.608c4.864 0 7.168-1.28 7.168-3.584v-24.064c0-2.304-2.304-3.584-7.168-3.584v-4.608h18.688v32.256zm1.024-45.312c0 1.792-.768 3.328-2.048 4.864-1.28 1.28-3.072 2.048-5.12 2.048-1.024 0-2.048-.256-2.816-.512-.768-.256-1.536-.768-2.304-1.536-.768-.512-1.28-1.28-1.536-2.048-.512-.768-.512-1.792-.512-2.56 0-1.792.768-3.584 2.048-4.864 1.536-1.28 3.072-2.048 5.12-2.048s3.584.768 5.12 2.048c1.536 1.024 2.048 2.56 2.048 4.608z"/><path fill="#472b29" d="M144.896 158.72h-28.672v-7.168h1.28c2.816 0 5.888-.512 5.888-2.304v-24.064c0-1.536-2.048-2.304-5.888-2.304h-1.28v-7.168h21.248v33.536c0 .512 0 .768.256 1.024.512.512 1.792 1.28 5.632 1.28h1.28v7.168zm-26.112-2.56h23.552v-2.048c-3.072-.256-5.12-.768-6.4-2.048-.768-.768-1.024-1.792-1.024-2.816v-30.72h-16.128v1.792c4.864.256 7.168 1.792 7.168 4.864v24.064c0 3.072-2.56 4.608-7.168 4.864zm11.264-44.288c-1.28 0-2.304-.256-3.328-.768s-1.792-1.024-2.56-1.792-1.28-1.536-1.792-2.56-.768-2.048-.768-3.328c0-2.304.768-4.096 2.56-5.632 1.792-1.536 3.584-2.304 5.888-2.304s4.352.768 5.888 2.304c1.792 1.536 2.56 3.584 2.56 5.632 0 2.304-.768 4.096-2.56 5.632-1.536 2.048-3.328 2.816-5.888 2.816zm0-13.568a6.952 6.952 0 0 0-4.352 1.536c-1.28 1.024-1.792 2.304-1.792 3.84 0 .768.256 1.536.512 2.048.256.768.768 1.28 1.28 1.792s1.28 1.024 1.792 1.28c.768.256 1.536.512 2.304.512 1.792 0 3.072-.512 4.096-1.536s1.792-2.304 1.792-3.84-.512-2.816-1.792-3.84c-.768-1.28-2.048-1.792-3.84-1.792z"/><path fill="#fdfcef" d="M93.44 188.16h8.96c4.864 0 8.96-4.096 8.96-8.96 0-4.608-3.328-8.192-7.936-8.96 0-.512.256-1.024.256-1.28 0-4.864-4.096-8.96-8.96-8.96-2.56 0-5.12 1.28-6.656 3.072-1.024-4.608-5.12-8.192-9.984-8.192-5.632 0-10.24 4.608-10.24 10.24 0 .512 0 1.024.256 1.536-1.024-.768-2.56-1.536-4.096-1.536-3.072 0-5.632 2.304-6.4 5.376-.512 0-1.024-.256-1.28-.256-4.864 0-8.96 4.096-8.96 8.96 0 4.864 4.096 8.96 8.96 8.96h19.2v1.28h17.92z"/><path fill="#472b29" d="M98.048 176.64c-.256 0-.768-.256-.768-.768 0-3.072 2.56-5.632 5.632-5.632 0 0 1.792 0 3.072.256.256 0 .512.512.512.768s-.512.512-.768.512c-1.024-.256-2.816-.256-2.816-.256-2.304 0-4.352 2.048-4.352 4.352 0 .512-.256.768-.512.768zM80.64 186.88a1.28 1.28 0 1 0 0 2.56 1.28 1.28 0 0 0 0-2.56z"/><path fill="#472b29" d="M102.4 189.44h-8.96c-.768 0-1.28-.512-1.28-1.28s.512-1.28 1.28-1.28h8.96c4.352 0 7.68-3.328 7.68-7.68 0-3.84-2.816-7.168-6.656-7.68-.256 0-.768-.256-.768-.512s-.256-.512-.256-1.024v-1.28c0-4.352-3.328-7.68-7.68-7.68-2.048 0-4.096 1.024-5.632 2.56-.256.256-.768.512-1.28.256-.512 0-.768-.512-1.024-1.024-.768-4.096-4.608-7.168-8.704-7.168-4.864 0-8.96 4.096-8.96 8.96v1.024c0 .512-.256 1.024-.512 1.28s-1.024.256-1.536 0c-.768 0-2.048-.512-3.072-.512a5.231 5.231 0 0 0-5.12 4.096c0 .768-.768 1.024-1.536 1.024h-1.28c-4.352 0-7.68 3.328-7.68 7.68s3.328 7.68 7.68 7.68h19.2c.768 0 1.28.512 1.28 1.28s-.256 1.28-1.024 1.28h-19.2c-5.632 0-10.24-4.608-10.24-10.24 0-5.632 4.608-10.24 10.24-10.24h.512c1.024-3.072 3.84-5.12 7.168-5.12.768 0 1.792.256 2.56.512.512-5.888 5.376-10.752 11.52-10.752 4.608 0 8.96 2.816 10.752 7.168 1.792-1.28 3.84-2.048 5.888-2.048 5.632 0 10.24 4.608 10.24 10.24v.256c4.352 1.024 7.68 5.12 7.68 9.984 0 5.632-4.608 10.24-10.24 10.24z"/><path fill="#472b29" d="M88.32 186.88h-2.56c-.768 0-1.28.512-1.28 1.28s.512 1.28 1.28 1.28h2.56c.768 0 1.28-.512 1.28-1.28s-.512-1.28-1.28-1.28z"/></g></svg>