<svg xmlns="http://www.w3.org/2000/svg" width="500" height="500" viewBox="0 0 255.99 255.99"><g fill="none" stroke-miterlimit="10" font-family="none" font-size="none" font-weight="none" style="mix-blend-mode:normal" text-anchor="none" transform="scale(2.56)"><path fill="#c7ede6" d="M87.215 56.71A15.423 15.423 0 0 0 89 49.5c0-6.621-4.159-12.257-10.001-14.478L79 35c0-11.598-9.402-21-21-21-9.784 0-17.981 6.701-20.313 15.757A14.982 14.982 0 0 0 33 29c-7.692 0-14.023 5.793-14.89 13.252C12.906 43.353 9 47.969 9 53.5 9 59.851 14.149 65 20.5 65c.177 0 .352-.012.526-.022-.004.175-.026.346-.026.522C21 76.822 30.178 86 41.5 86c6.437 0 12.175-2.972 15.934-7.614A11.948 11.948 0 0 0 66 82c4.65 0 8.674-2.65 10.666-6.518 1.052.335 2.171.518 3.334.518 6.075 0 11-4.925 11-11 0-3.311-1.47-6.273-3.785-8.29z"/><path fill="#fdfcef" d="M33.5 75.5H37a3.5 3.5 0 0 0 3.5-3.5 3.489 3.489 0 0 0-3.055-3.455c.028-.179.055-.358.055-.545a3.5 3.5 0 0 0-3.5-3.5c-1.032 0-1.95.455-2.59 1.165a3.999 3.999 0 0 0-7.91.835c0 .191.03.374.056.558A2.473 2.473 0 0 0 22 66.5a2.496 2.496 0 0 0-2.455 2.055A3.495 3.495 0 0 0 19 68.5a3.5 3.5 0 1 0 0 7h7.5v.5h7z"/><path fill="#472b29" d="M35.25 71a.25.25 0 0 1-.25-.25 2.22 2.22 0 0 1 2.218-2.218c.034.009.737-.001 1.244.136a.25.25 0 0 1-.13.482c-.444-.12-1.1-.12-1.113-.118A1.72 1.72 0 0 0 35.5 70.75a.25.25 0 0 1-.25.25z"/><circle cx="28.5" cy="75.5" r=".5" fill="#472b29"/><path fill="#472b29" d="M37 76h-3.5a.5.5 0 0 1 0-1H37c1.654 0 3-1.346 3-3a2.996 2.996 0 0 0-2.618-2.959.502.502 0 0 1-.43-.573c.023-.154.048-.308.048-.468 0-1.654-1.346-3-3-3-.85 0-1.638.355-2.219 1a.498.498 0 0 1-.86-.231A3.514 3.514 0 0 0 27.5 63c-1.93 0-3.5 1.57-3.5 3.5 0 .143.021.28.041.418.029.203-.063.438-.242.54-.179.102-.396.118-.556-.01A1.97 1.97 0 0 0 22 67c-.966 0-1.792.691-1.963 1.644a.498.498 0 0 1-.569.405C19.314 69.025 19.16 69 19 69c-1.654 0-3 1.346-3 3s1.346 3 3 3h7.5a.5.5 0 0 1 0 1H19c-2.206 0-4-1.794-4-4a4.004 4.004 0 0 1 4.174-3.994A2.993 2.993 0 0 1 22 66c.349 0 .689.061 1.011.18A4.506 4.506 0 0 1 27.5 62a4.523 4.523 0 0 1 4.153 2.774A3.979 3.979 0 0 1 34 64a4.004 4.004 0 0 1 3.996 4.142A3.999 3.999 0 0 1 41 72c0 2.206-1.794 4-4 4z"/><path fill="#472b29" d="M31.5 75h-1a.5.5 0 0 0 0 1h1a.5.5 0 0 0 0-1z"/><path fill="#fff" d="M15.405 51H5.5a.5.5 0 0 1 0-1h9.905a.5.5 0 0 1 0 1zM18.5 51h-1a.5.5 0 0 1 0-1h1a.5.5 0 0 1 0 1zM23.491 53H14.5a.5.5 0 0 1 0-1h8.991a.5.5 0 0 1 0 1zM12.5 53h-1a.5.5 0 0 1 0-1h1a.5.5 0 0 1 0 1zM9.5 53h-2a.5.5 0 0 1 0-1h2a.5.5 0 0 1 0 1zM15.5 55h-2a.5.5 0 0 1 0-1h2a.5.5 0 0 1 0 1zM18.5 46h-1a.5.5 0 0 0 0 1h1a.5.5 0 0 0 0-1zM18.5 48h-5a.5.5 0 0 0 0 1h5a.5.5 0 0 0 0-1zM23.5 50h-3a.5.5 0 0 0 0 1h3a.5.5 0 0 0 0-1zM87.5 65h-10a.5.5 0 0 1 0-1h10a.5.5 0 0 1 0 1zM91.5 65h-2a.5.5 0 0 1 0-1h2a.5.5 0 0 1 0 1zM96.5 67h-10a.5.5 0 0 1 0-1h10a.5.5 0 0 1 0 1zM84.5 67h-1a.5.5 0 0 1 0-1h1a.5.5 0 0 1 0 1zM81.375 67H79.5a.5.5 0 0 1 0-1h1.875a.5.5 0 0 1 0 1zM90.5 63h-5a.5.5 0 0 1 0-1h5a.5.5 0 0 1 0 1zM87.5 69h-2a.5.5 0 0 1 0-1h2a.5.5 0 0 1 0 1z"/><path fill="#4792dd" d="M29.989 64.011V35.989a7 7 0 0 1 7-7h28.023a7 7 0 0 1 7 7v28.023a7 7 0 0 1-7 7H36.989a7.001 7.001 0 0 1-7-7.001z"/><path fill="#472b29" d="M65 29.4c3.639 0 6.6 2.961 6.6 6.6v28c0 3.639-2.961 6.6-6.6 6.6H37a6.608 6.608 0 0 1-6.6-6.6V36c0-3.639 2.961-6.6 6.6-6.6h28m0-1.4H37a8 8 0 0 0-8 8v28a8 8 0 0 0 8 8h28a8 8 0 0 0 8-8V36a8 8 0 0 0-8-8z"/><path fill="#472b29" d="M69.5 41a.5.5 0 0 1-.5-.5v-4c0-2.481-2.019-4.5-4.5-4.5h-11a.5.5 0 0 1 0-1h11c3.032 0 5.5 2.467 5.5 5.5v4a.5.5 0 0 1-.5.5zM69.5 57a.5.5 0 0 1-.5-.5v-9.016a.5.5 0 0 1 1 0V56.5a.5.5 0 0 1-.5.5zM64.5 69h-27a5.506 5.506 0 0 1-5.5-5.5v-27c0-3.033 2.468-5.5 5.5-5.5h7a.5.5 0 0 1 0 1h-7a4.505 4.505 0 0 0-4.5 4.5v27c0 2.481 2.019 4.5 4.5 4.5h27c2.481 0 4.5-2.019 4.5-4.5v-4a.5.5 0 0 1 1 0v4c0 3.033-2.468 5.5-5.5 5.5zM50.5 32h-3a.5.5 0 0 1 0-1h3a.5.5 0 0 1 0 1z"/><path fill="#fdfcef" d="M62.5 59.5h-23a3 3 0 0 1-3-3v-13a3 3 0 0 1 3-3h23a3 3 0 0 1 3 3v13a3 3 0 0 1-3 3z"/><path fill="#472b29" d="M62.5 60h-23c-1.93 0-3.5-1.57-3.5-3.5v-13c0-1.93 1.57-3.5 3.5-3.5h23c1.93 0 3.5 1.57 3.5 3.5v13c0 1.93-1.57 3.5-3.5 3.5zm-23-19a2.503 2.503 0 0 0-2.5 2.5v13c0 1.378 1.121 2.5 2.5 2.5h23c1.379 0 2.5-1.122 2.5-2.5v-13c0-1.378-1.121-2.5-2.5-2.5z"/><path fill="#472b29" d="M51 53.965a4.192 4.192 0 0 1-2.97-1.228L37.146 41.854a.5.5 0 0 1 .707-.707L48.737 52.03a3.204 3.204 0 0 0 4.525 0l10.884-10.884a.5.5 0 0 1 .707.707L53.97 52.737A4.187 4.187 0 0 1 51 53.965z"/><path fill="#472b29" d="M37.5 59a.5.5 0 0 1-.354-.853l8.5-8.5a.5.5 0 0 1 .707.707l-8.5 8.5A.498.498 0 0 1 37.5 59zM64.5 59a.502.502 0 0 1-.354-.146l-8.5-8.5a.5.5 0 0 1 .707-.707l8.5 8.5A.5.5 0 0 1 64.5 59z"/><path fill="#fdfcef" d="M80.875 35.5H87a4.5 4.5 0 0 0 4.5-4.5c0-2.333-1.782-4.229-4.055-4.455.022-.181.055-.358.055-.545a4.5 4.5 0 0 0-4.5-4.5c-1.438 0-2.703.686-3.527 1.736-.14-2.636-2.302-4.736-4.973-4.736a5 5 0 0 0-5 5c0 .446.077.87.187 1.282A3.477 3.477 0 0 0 67 23.5a3.489 3.489 0 0 0-3.455 3.055c-.181-.022-.358-.055-.545-.055a4.5 4.5 0 0 0 0 9h14.875v.5h3z"/><path fill="#472b29" d="M74.5 18a5.506 5.506 0 0 0-5.5 5.5v.047A3.933 3.933 0 0 0 67 23a3.998 3.998 0 0 0-3.858 3.005A2.22 2.22 0 0 0 63 26c-2.757 0-5 2.243-5 5s2.243 5 5 5h14.875a.5.5 0 0 0 0-1H63c-2.206 0-4-1.794-4-4s1.794-4 4-4c.117 0 .23.017.343.032l.141.019a.502.502 0 0 0 .557-.433A2.996 2.996 0 0 1 67 24c.885 0 1.723.401 2.301 1.1a.503.503 0 0 0 .614.126.5.5 0 0 0 .254-.573A4.45 4.45 0 0 1 70 23.5c0-2.481 2.019-4.5 4.5-4.5 2.381 0 4.347 1.872 4.474 4.263a.5.5 0 0 0 .893.282A3.97 3.97 0 0 1 83 22c2.206 0 4 1.794 4 4 0 .117-.017.23-.032.343l-.019.141a.5.5 0 0 0 .446.558A3.976 3.976 0 0 1 91 31c0 2.206-1.794 4-4 4h-6.125a.5.5 0 0 0 0 1H87c2.757 0 5-2.243 5-5a4.966 4.966 0 0 0-4.003-4.877L88 26c0-2.757-2.243-5-5-5a4.932 4.932 0 0 0-3.183 1.164A5.486 5.486 0 0 0 74.5 18z"/><path fill="#472b29" d="M73 25c-1.403 0-2.609.999-2.913 2.341A2.344 2.344 0 0 0 68.875 27a2.377 2.377 0 0 0-2.353 2.068 2.628 2.628 0 0 0-.584-.068 2.94 2.94 0 0 0-2.918 2.732.25.25 0 0 0 .231.268h.018a.25.25 0 0 0 .249-.232 2.44 2.44 0 0 1 2.419-2.268c.229 0 .47.042.738.127.022.007.045.01.067.01a.26.26 0 0 0 .258-.262c0-1.034.841-1.875 1.875-1.875.447 0 .885.168 1.231.473a.252.252 0 0 0 .165.063.231.231 0 0 0 .093-.019.247.247 0 0 0 .155-.212C70.623 26.512 71.712 25.5 73 25.5c.208 0 .425.034.682.107a.25.25 0 0 0 .137-.481A2.94 2.94 0 0 0 73 25zM86.883 26.5a3.007 3.007 0 0 0-2.874 2.182.25.25 0 1 0 .481.136A2.505 2.505 0 0 1 86.883 27c.117 0 .23.014.342.029a.251.251 0 0 0 .281-.214.249.249 0 0 0-.214-.281 3.063 3.063 0 0 0-.409-.034z"/></g></svg>